<svg xmlns="http://www.w3.org/2000/svg" width="54" height="54" viewBox="0 0 54 54"><defs><style>.a,.b{fill:#1e6ee7;}.a{opacity:0.1;}</style></defs><g transform="translate(-270 -25.779)"><circle class="a" cx="27" cy="27" r="27" transform="translate(270 25.779)"/><path class="b" d="M28.058,25.427a2.63,2.63,0,0,1-2.63,2.63H2.63A2.63,2.63,0,0,1,0,25.427V11A2.63,2.63,0,0,1,1.008,8.93c1.365-1.07,2.493-1.938,9-6.659C10.928,1.6,12.757-.019,14.029,0c1.271-.019,3.1,1.6,4.023,2.271,6.5,4.72,7.634,5.589,9,6.659A2.63,2.63,0,0,1,28.058,11Zm-3.6-10.774a.438.438,0,0,0-.621-.1c-1.252.925-3.039,2.231-5.786,4.224-.922.672-2.752,2.29-4.023,2.27-1.272.019-3.1-1.6-4.023-2.27-2.746-1.993-4.534-3.3-5.786-4.224a.438.438,0,0,0-.621.1l-.5.723a.438.438,0,0,0,.1.6c1.254.926,3.039,2.23,5.771,4.212,1.111.81,3.1,2.62,5.056,2.607,1.958.013,3.943-1.8,5.056-2.607,2.732-1.983,4.517-3.286,5.771-4.212a.438.438,0,0,0,.1-.6l-.5-.723Z" transform="translate(282.971 37.889)"/></g></svg>