<svg xmlns="http://www.w3.org/2000/svg" width="54" height="54" viewBox="0 0 54 54"><defs><style>.a,.b{fill:#fd7f09;}.a{opacity:0.1;}</style></defs><g transform="translate(-270 -25.779)"><circle class="a" cx="27" cy="27" r="27" transform="translate(270 25.779)"/><path class="b" d="M13.926,0A6.093,6.093,0,0,0,7.833,6.093c0,2.72,3.982,7.679,5.508,9.478a.763.763,0,0,0,1.17,0c1.526-1.8,5.508-6.758,5.508-9.478A6.093,6.093,0,0,0,13.926,0Zm0,8.124a2.031,2.031,0,1,1,2.031-2.031A2.031,2.031,0,0,1,13.926,8.124ZM.973,10.442A1.548,1.548,0,0,0,0,11.879v12.1a.774.774,0,0,0,1.061.719l6.676-3.039V10.392A14.644,14.644,0,0,1,6.709,8.148Zm12.953,6.95a2.31,2.31,0,0,1-1.765-.82c-.951-1.122-1.962-2.4-2.877-3.71v8.8l9.284,3.095V12.862c-.915,1.31-1.925,2.588-2.877,3.71A2.312,2.312,0,0,1,13.926,17.392Zm12.865-9.6-6.676,3.039V24.758l6.764-2.705a1.547,1.547,0,0,0,.973-1.437V8.511A.774.774,0,0,0,26.791,7.793Z" transform="translate(283.074 39.543)"/></g></svg>