<svg xmlns="http://www.w3.org/2000/svg" width="1280" height="456" viewBox="0 0 1280 456"><defs><style>.a{fill:#1e6ee7;opacity:0.1;}.b{fill:#4f75ba;}.c{fill:#739af0;}.d{fill:#ffb27d;}.e{fill:#ea8e50;}.f{fill:#992525;}.g{fill:#233862;}.h{fill:#2b478b;}.i{fill:#ffb07b;}.j{fill:#bc3f3f;}.k{fill:#f99746;}.l{fill:#2c3a64;}.m{fill:#ed985f;}.n{fill:#253d78;}.o{fill:#ed7d2b;}.p{fill:#ed975d;}.q{fill:#163560;}.r{fill:#11294a;}.s{fill:#fff;}.t{fill:none;stroke:#353c56;stroke-linecap:round;stroke-width:5px;}</style></defs><g transform="translate(0 -134)"><rect class="a" width="1280" height="456" transform="translate(0 134)"/><g transform="translate(-287.253 -51.862)"><g transform="translate(421.253 230.551)"><g transform="translate(188.047 0)"><g transform="translate(25.624)"><path class="b" d="M2009.458,597.692h-212.4a38.5,38.5,0,0,1-38.5-38.5V375.3a144.837,144.837,0,0,1,88.368-133.318c15.385-6.507,11.706-10.45,28.385-11.361,2.677-.146,25.245-.019,27.946-.019a144.6,144.6,0,0,1,144.7,144.7V559.195A38.5,38.5,0,0,1,2009.458,597.692ZM1803.775,382.97h198.961V375.3a99.48,99.48,0,0,0-198.961,0Z" transform="translate(-1758.557 -230.551)"/></g><g transform="translate(0 0.051)"><path class="c" d="M1906.251,597.847h-212.4a38.5,38.5,0,0,1-38.5-38.5V375.456a144.7,144.7,0,1,1,289.4,0V559.35A38.5,38.5,0,0,1,1906.251,597.847ZM1700.568,383.124h198.961v-7.669a99.48,99.48,0,0,0-198.961,0Z" transform="translate(-1655.35 -230.757)"/></g><path class="b" d="M2201.858,1080.522a17.829,17.829,0,0,0-4.347-11.687c-2.483-3.685-7.62-6.217-13.557-6.217s-11.075,2.532-13.558,6.217a17.9,17.9,0,0,0,8.212,28.779v27.116c0,2.187,2.394,3.96,5.346,3.96s5.346-1.773,5.346-3.96v-27.116A17.913,17.913,0,0,0,2201.858,1080.522Z" transform="translate(-2039.255 -856.036)"/></g><g transform="translate(0 134.738)"><path class="d" d="M1234.517,1038.463c-.339,2.3-2.964,4.96-5.765,6.955-3.015,2.148-4.222,4.354-5.291,5.455-.4.452-.639.7-.639.7l-3.218-3.743a.892.892,0,0,0,.148-.141,26.158,26.158,0,0,0,3.762-4.947c2.666-4.884,6.394-5.6,6.394-5.6S1233.471,1037.666,1234.517,1038.463Z" transform="translate(-990.731 -971.62)"/><g transform="translate(12.654 72.192)"><path class="e" d="M602.468,1231.591l2.175,1.766s5.949-2.133,7.291,4.936c0,0,.358,3.013-1.551,3.018s-1.121-.329-3.823-.25-4.942-1.345-5.338-3.538l-1.293-1.858Z" transform="translate(-537.561 -1189.986)"/><path class="f" d="M413.386,1109.411c1.735-1.811,1.6-3.151,1.6-3.151s-20.09-16.448-22.127-17.788c-1.388-.913-15.387-14.323-23.1-22.026-3.71-3.706-7.68-2.427-12.542-1.033l-4,1.149c-4.834,1.387-6.092,8.149-2.125,11.434,11.172,9.254,29.756,19.662,33.233,21.849,8.632,5.43,25.529,11.883,25.529,11.883A10.7,10.7,0,0,0,413.386,1109.411Z" transform="translate(-348.725 -1064.016)"/></g><path class="g" d="M682.079,1653.881s4.876,3.653,12.347,1.723c0,0,6.023-1.372,7.344,1.631,0,0-9.238,4.693-11.575,5.977a27.991,27.991,0,0,0-4.9,3.674,2.423,2.423,0,0,1-3.508-.271c-.406-.5-.871-1.095-1.381-1.785-1.424-1.93-4.743-8.165-4.743-8.165Z" transform="translate(-581.837 -1435.24)"/><path class="h" d="M485.442,1382.652s-2.969,6.845-9.822,5.587c0,0-13.984-11.549-23.576-23.545a53.308,53.308,0,0,1-7.327-11.449c-6.361-14.727-23.529-36.692-34.444-47.825l27.31-9.88s8.747,17.6,20.386,39.211C466.358,1350.325,476.244,1367.985,485.442,1382.652Z" transform="translate(-382.338 -1165.867)"/><path class="g" d="M457.97,1334.752l-5.925,29.942a53.308,53.308,0,0,1-7.327-11.449c-6.361-14.727-23.529-36.692-34.444-47.825l27.31-9.88S446.331,1313.138,457.97,1334.752Z" transform="translate(-382.338 -1165.867)"/><path class="g" d="M482.724,1660.816s-.3,5.462,6.324,6.191c0,0,3.784.02,3.795,3.5l-19.246.061a14.969,14.969,0,0,1-.694-4.406c-.1-2.307,2.236-8.337,2.236-8.337Z" transform="translate(-429.415 -1438.203)"/><path class="h" d="M403.866,1291.872s12.166,13.369,19.889,37.453c4.2,13.1-7.7,46.051-10.022,57.5,0,0-7.985.678-13.445-1.433,0,0-.415-23.643,2.778-41.866,1.787-10.2-16.019-21.811-23.8-40.239-5.293-12.537,1.146-12.324,9.059-12.625Z" transform="translate(-357.578 -1162.198)"/><path class="i" d="M365.172,1005.362c-6.769,3.823-20.627.3-20.627.3s5.628-6.433,3.07-16.8l5.315,2.7,5.709,2.9a47.345,47.345,0,0,1,.626,5.117c.065.846.124,1.792.164,2.825A17.751,17.751,0,0,1,365.172,1005.362Z" transform="translate(-332.928 -935.331)"/><path class="j" d="M374.552,1104.444c0,1.19-1.371,1.759-1.662,1.817-2.73.5-10.353,3.464-17.22,4.144a55.052,55.052,0,0,1-17.049-1.153c-.781-.157-2.615-.651-2.745-1.4-.162-.817-22.749-46.045-5.191-65.474.412-.456,3.878.365,7.048,1.117a13.01,13.01,0,0,0,8.01-.654l2.973,1.564c3.651,2.034,10.558,9.261,11.366,14.931.41,2.884,2.059,5.019,2.537,7.556q.266,1.407.542,2.748.54,2.628,1.112,5.005c1.033,4.289,2.123,7.981,3.193,11.17,1.139,3.386,2.256,6.2,3.254,8.56,1.295,3.056,2.388,5.339,3.072,7.088A8.732,8.732,0,0,1,374.552,1104.444Z" transform="translate(-317.488 -975.461)"/><path class="f" d="M394.567,1147.94c-31.884-15.022-42.926-43.866-42.926-43.866s25.9,9.556,32.295,12.044q.54,2.628,1.112,5.005c1.033,4.289,2.122,7.981,3.193,11.17,1.139,3.386,2.256,6.2,3.254,8.559C392.79,1143.908,393.884,1146.192,394.567,1147.94Z" transform="translate(-338.263 -1021.937)"/><g transform="translate(9.101)"><g transform="translate(39.428)"><path class="k" d="M541.441,891.838h-17.6a30.656,30.656,0,0,1-30.621-30.621V803.866a30.656,30.656,0,0,1,30.621-30.621h17.6a30.656,30.656,0,0,1,30.621,30.621v57.352A30.656,30.656,0,0,1,541.441,891.838Zm-17.6-100.506A12.548,12.548,0,0,0,511.3,803.866v57.352a12.548,12.548,0,0,0,12.534,12.534h17.6a12.548,12.548,0,0,0,12.534-12.534V803.866a12.548,12.548,0,0,0-12.534-12.534Z" transform="translate(-493.218 -773.245)"/><path class="k" d="M942.235,990.657H780.817V969.53H942.235A10.564,10.564,0,0,1,952.8,980.094h0A10.563,10.563,0,0,1,942.235,990.657Z" transform="translate(-709.413 -920.797)"/><path class="k" d="M0,0H16.956a0,0,0,0,1,0,0V41.4a8.478,8.478,0,0,1-8.478,8.478h0A8.478,8.478,0,0,1,0,41.4V0A0,0,0,0,1,0,0Z" transform="translate(212.568 65.606)"/></g><path class="i" d="M595.322,1245.161l2.755,1.01s5.517-3.9,8.953,2.444c0,0,1.243,2.771-.724,3.373s-1.251.035-4.016.956-5.488.258-6.532-1.717l-1.873-1.374Z" transform="translate(-529.463 -1127.863)"/><path class="j" d="M402.537,1117.03c1.019-2.658,1.484-3.862,1.484-3.862s-20.819-16.969-22.94-18.425c-1.445-.992-15.837-11.749-22.852-20.132a14.684,14.684,0,0,0-14.275-4.946l-4.371.917a6.5,6.5,0,0,0-2.9,11.3c11.529,9.884,30.974,21.347,34.6,23.732,9,5.919,28.909,14.214,28.909,14.214A5.126,5.126,0,0,0,402.537,1117.03Z" transform="translate(-334.411 -995.835)"/></g><path class="e" d="M370.572,1007.751c-6.656.374-10.985-5.122-10.985-5.122a52.857,52.857,0,0,0,4.651-2.894l5.709,2.9A47.365,47.365,0,0,1,370.572,1007.751Z" transform="translate(-344.236 -943.503)"/><path class="i" d="M354.482,953.082s-10.085,7.238-14.5.888-8.683-9.693-2.43-14.583,9.2-3.345,11.189-1.583S356.992,951.036,354.482,953.082Z" transform="translate(-325.31 -895.668)"/><path class="g" d="M322.256,907.268a16.235,16.235,0,0,0-1.175-4.159s-.633,2.622-5.424,2.26-12.386.471-14.917,5.931q-.242.521-.433,1.071a12.642,12.642,0,0,1-.569-3.025,9.322,9.322,0,0,0,0,5.291h0c-.014.086-.025.172-.037.258-1.058.894-1.946,3.673-1.946,3.673a3.329,3.329,0,0,1,1.791-1.592c-.022,4.249,1.7,8.4,4.726,9.639,4.422,1.808,4.387.429,8.834,3.379,0,0,1.193-1.48.379-2.474s-3.887-2.441-2.17-3.888,2.35.181,2.983-.813-2.531-3.887,1.537-6.6S322.618,909.708,322.256,907.268Z" transform="translate(-297.756 -870.867)"/><g transform="translate(153.784 19.832)"><path class="j" d="M1015.469,1336.512l-3.716,1.384s-16.14-22.385-18.128-42.081a29.914,29.914,0,0,1,.531-10.069s-.158-.9-.434-2.494c-.127-.743-.285-1.638-.464-2.664-.525-3.007-1.247-7.12-2.072-11.8-1.9-10.779-4.359-24.559-6.271-34.689l1-.322,10.833-3.495,2.239-7.111,8.067-2.124s1.8,3.525,3.413,20.178c.3,2.185.567,4.593.771,7.205a142.6,142.6,0,0,1-.768,29.17q-.555,4.341-1.417,8.953a39.937,39.937,0,0,0-.309,8.841C1009.559,1311.49,1015.469,1336.512,1015.469,1336.512Z" transform="translate(-968.094 -1129.697)"/><path class="f" d="M1011.24,1248.426l-17.517,34.825c-.127-.743-.285-1.638-.464-2.664-.525-3.007-1.247-7.12-2.072-11.8-1.9-10.779-4.359-24.559-6.271-34.689l1-.322,10.833-3.495,2.239-7.111,8.067-2.124s1.8,3.525,3.413,20.178C1010.766,1243.405,1011.036,1245.814,1011.24,1248.426Z" transform="translate(-968.094 -1129.697)"/><path class="j" d="M954.513,1213.248l-.405-3.477c-6.794,1.8-24.946-5.042-24.946-5.042s-6.582,5.785-5.718,19.653c.422,6.769,1.192,35.532,2,44.043.291,3.085.546,5.28.649,6.157a.015.015,0,0,1,0,.009,1.217,1.217,0,0,1-.2.754,39.98,39.98,0,0,0-2.97,6.246c-7.9,21.046,1.217,46.964,1.217,46.964l2.365-.953s5.187-28.844,9.4-41.587a25.244,25.244,0,0,1,2.03-4.875c1.832-2.957,3.533-7.79,5.076-13.536,2.917-10.866,5.265-25,6.828-35.911C950.057,1231.7,954.513,1213.248,954.513,1213.248Z" transform="translate(-919.073 -1117.433)"/><path class="l" d="M1134.423,1041.542a18.911,18.911,0,0,1,6.048,4.435s-11.587,20.208-18.256,23.147c-3.661,1.613-15.116-10.626-17.484-17.484-.579-1.676,1.558-7.284.858-8.463a11.761,11.761,0,0,1-1.558-4.384,2.1,2.1,0,0,1-.072-.615,9.715,9.715,0,0,1,.209-3.5c.265-.682,1.015-.975,2.129-.957h.394c6,3.531,13.885,20.873,15.185,21.279C1125.266,1050.7,1134.423,1041.542,1134.423,1041.542Z" transform="translate(-1057.534 -988.879)"/><path class="d" d="M1043.637,992.592a21.15,21.15,0,0,1-7.824,1.833c-11.681.64-14.332-9.6-14.814-16.395a9.8,9.8,0,0,1,4.008-.507c.828.046,1.693.131,2.406.219,1.429-.746,4-4.372,5.479-10.436l.5.234,8.428,3.962s-.9,2.743-1.557,5.367c-.516,2.054-.886,4.038-.576,4.593.664.27,1.062.44,1.062.44a.025.025,0,0,0,0,.009A57.8,57.8,0,0,1,1043.637,992.592Z" transform="translate(-995.219 -938.957)"/><path class="h" d="M988.729,1030.987c-.088.234-.185.461-.291.695-2.958,6.371-8.434,32.762-8.434,32.762.78,4.745-35.659-.932-35.753-5.252-1.283-4.581,4.554-11.941,7.846-15.633a10.516,10.516,0,0,0,1.1-1.486,10.358,10.358,0,0,0,1.493-4.357c.647-6.124-1.76-20.248-1.11-22.977.254-1.067,5.079,5.038,5.655,4.425a3.4,3.4,0,0,0,1.077-2.121,11.3,11.3,0,0,0-.045-1.778c-.027-.282-.064-.564-.106-.847-.455-2.964-6.123-1.7-6.123-1.7,2.077-5,13.14-4.6,13.137-4.466s-.006.31-.01.816c-.018,2.036,0,7.263.653,8.252.816,1.231,15.745,6.629,16.534,4.957.777-1.644-1.35-9.347-1.429-9.638a.025.025,0,0,1,0-.009,29.6,29.6,0,0,1,3.622,1.892C988.419,1018.282,991.059,1024.807,988.729,1030.987Z" transform="translate(-937.389 -969.688)"/><path class="j" d="M1045.328,859.372c-.018-.507-.41-5.963-8.722-6.248,0,0,4.087.487,4.793,2.284,0,0-2.783-2.22-5.049-1.506s-3.6,4.685-3.611,5.991,1.246,5.516,2.684,5.874a4.389,4.389,0,0,0,1.742,0,19.614,19.614,0,0,0-1.116,1.993c-3.317,6.808.1,13.462,2.911,12.726,1.8-.471,2.31,2.6,2.31,2.6l17.495-14.163S1052.34,855.63,1045.328,859.372Z" transform="translate(-1004.045 -853.124)"/><path class="m" d="M1079.355,972.216s-.9,2.74-1.556,5.366c-4.927-1.374-6.422-6.553-6.873-9.328Z" transform="translate(-1032.75 -939.67)"/><path class="d" d="M1078.279,930.995s-11.786-2.728-9.974-10.041,1.511-12.591,9.113-11.159,8.367,4.584,8.356,7.172S1081.392,931.516,1078.279,930.995Z" transform="translate(-1030.637 -895.548)"/><path class="j" d="M1077.466,908.779c-1.267-2.651-2.758-2.509-3.691-2.039a8.455,8.455,0,0,0-10.97-.938,14.394,14.394,0,0,1-6.622,7.115s1.811,1.854,7.058,1.813a8.636,8.636,0,0,0,4.681-1.762,28.214,28.214,0,0,1-6.145,4.583c6.569-1.257,10.974-8.862,11.425-9.67a9.475,9.475,0,0,1,1.711,4.048c.122,2.008-.569,5.906.581,6.054C1075.494,917.982,1079.366,912.755,1077.466,908.779Z" transform="translate(-1021.667 -891.512)"/><path class="g" d="M935.981,1679.311H917.265a10.273,10.273,0,0,1,.529-5.016c.937-2.077,2.4-3.021,2.052-5.533a6.74,6.74,0,0,0,5.833,2.232c.331.537,2.14,3.414,3.247,4.209C930.15,1676.082,935.6,1675.769,935.981,1679.311Z" transform="translate(-917.162 -1466.258)"/><path class="g" d="M1097.549,1681.853h-18.716s-.7-2.985.529-5.016c1.088-1.8.671-2.822-.135-4.308a7.269,7.269,0,0,0,3.152.594,6.6,6.6,0,0,0,2.783-.979,67.3,67.3,0,0,0,5.333,5.6C1091.719,1678.624,1097.173,1678.311,1097.549,1681.853Z" transform="translate(-1038.545 -1468.8)"/></g><path class="k" d="M1257.358,1021.176h28.487l-1.583-11.048-25.435,1.022Z" transform="translate(-1019.112 -951.315)"/><path class="d" d="M1237.4,967.342c-1.328,1.323-1.3,5.564-4.1,7.559-3.015,2.148-4.222,4.353-5.291,5.455-.4.452-.639.7-.639.7l-3.217-3.743a.89.89,0,0,0,.148-.141,26.169,26.169,0,0,0,3.762-4.947c2.666-4.884,6.394-5.6,6.394-5.6A5.42,5.42,0,0,1,1237.4,967.342Z" transform="translate(-994.154 -918.609)"/><path class="n" d="M1044.374,997.853l4.748,5.313s-12.688,11.045-15.336,13.339a29.59,29.59,0,0,1-5.108,3.656,3.382,3.382,0,0,1-.442.2c-3.725,1.631-11.767,1.449-19.805.26-1.111-.162-2.208-.348-3.281-.52a76.947,76.947,0,0,1-10.841-2.636,30.173,30.173,0,0,1-4.776-1.918,12.41,12.41,0,0,1-1.252-.7c-6.285-3.765-5.981-7.263-5.862-8.519a4.326,4.326,0,0,1,3.122-3.595c4.987-1.618,21.719,4.83,24.184,5.3,1.479.313,5.328,1.676,6.623,1.913a38.769,38.769,0,0,0,5.926.734,13.634,13.634,0,0,0,4.442-1.407C1030.092,1007.79,1044.374,997.853,1044.374,997.853Z" transform="translate(-812.402 -942.088)"/><path class="d" d="M1238.286,1045.021a4.221,4.221,0,0,1-.434-1.7,9.676,9.676,0,0,1,2.215-3.3c.452-.311,1.046-1.074,1.187-.566a8.91,8.91,0,0,1-1.328,4.211A4.081,4.081,0,0,1,1238.286,1045.021Z" transform="translate(-1004.449 -973.232)"/></g><g transform="translate(305.623 44.743)"><path class="o" d="M2375.7,802.214c3.993,6.95,9.016,9.633,9.016,9.633h20.9S2372.653,796.913,2375.7,802.214Z" transform="translate(-2314.28 -704.171)"/><g transform="translate(0)"><path class="d" d="M2386.945,970.14c.545.624,1.014.59.745,1.334,0,0-.121.369-.124.372-.5,1.377-1.439,2.344-3.352,3.879-.244.2-.493.361-.683.528-.049.044-.388.112-.434.155s-.335.648-.373.68a58.838,58.838,0,0,0-4.624,4.5c-3.654,3.8-3.547,3.408-4.262,3.062-.605-.3-.856-1,.507-3.269.066-.109.131-.22.2-.33.181-.3.362-.607.542-.91,1.6-2.727,1.187-4.007.808-8.065-.308-3.3-5.131-18.426-5.131-18.426l7-1.206s2.109,12.046,4.432,13.9c1.242.989,2.633,1,3.826,1.734q.127.076.249.157C2386.949,968.689,2386.4,969.514,2386.945,970.14Z" transform="translate(-2310.719 -817.961)"/><path class="j" d="M2392.535,1017.119a1.932,1.932,0,0,1,.344,2.066.018.018,0,0,1-.005.01c-.61,1.376-2.216,2.906-4.064,4.437-.242.2-.455.385-.645.557-.05.043-.1.087-.146.131s-.076.069-.113.1c-1.783,1.644-1.112,2.021-4.316,5.356-3.653,3.8-6.169,3.87-6.884,3.524-.605-.3.625-2.311,1.987-4.577a15.571,15.571,0,0,0,6.512-4.8c2.2-2.807,3.667-6.414,5.165-8.5q.127.076.249.157A9.2,9.2,0,0,1,2392.535,1017.119Z" transform="translate(-2315.067 -865.3)"/><path class="d" d="M2152.841,958.536c-.432,2.161-1.834,1.555-5.276.714s-2.643-.016-7.542-.559-5.344-1.32-5.493-2.048c-.133-.646.89-1.083,3.486-1.382.326-.037.655-.077.982-.117,2.931-.368,5.077-2.259,7.74-3.812,2.522-1.471,6.285-7.466,6.285-7.466l6.718.532s-3.525,5.354-4.889,7.682a8.117,8.117,0,0,0-.659,4.578C2154.245,957.417,2152.994,957.775,2152.841,958.536Z" transform="translate(-2133.128 -811.509)"/><path class="j" d="M2142.978,994.418c-3.441-.841-2.624.159-7.522-.384s-6.382-2.369-6.532-3.1c-.134-.646,2.287-.874,4.883-1.173l.025.05a13.807,13.807,0,0,0,7.014,2.18c3.323.081,6.843-.871,9.138-.834a8.64,8.64,0,0,1-.052,2.3C2149.5,995.619,2146.419,995.259,2142.978,994.418Z" transform="translate(-2128.919 -846.012)"/><path class="o" d="M2317.243,799.033l6.28,16.9,8.2,22.064a13.28,13.28,0,0,0,4.355-.4,18.88,18.88,0,0,0,4.212-2.051s-2.276-23.69-6.523-37.289c-1.088-3.491-2.308-6.314-3.654-7.9C2323.528,782.573,2317.243,799.033,2317.243,799.033Z" transform="translate(-2270.486 -694.541)"/><path class="k" d="M2230.526,713.33c4.114-1.327,15.848.377,27.635,2.684l2.468-4.071,25.459-1.988s8.387,18.625,3.8,30.5c-1.117,2.892-4.762,2.891-4.763,2.892h-19.991c-12.661,0-26.8-8.7-28.624-9.069-2.993-.6-4.19,5.387-7.183,11.672s-28.132,27.833-28.132,27.833a22.128,22.128,0,0,1-5.46-.56,5.377,5.377,0,0,1-2.345-1.48S2221.249,716.323,2230.526,713.33Z" transform="translate(-2177.385 -635.673)"/><path class="g" d="M2444.776,451.973c9.066,4.992,27.458,15.34,27.553,15.273,0,0,6.76,2.547,10.6,0,6.392-4.245,9.82-15.67-1.87-25.5-5.83-4.9-9.972-6.1-10.6-13.927-.342-4.248-6.148-18.266-15.8-16.97a14.725,14.725,0,0,1-2.432.16,9.029,9.029,0,0,0-4.9,1.264C2441.871,415.523,2431.185,450.041,2444.776,451.973Z" transform="translate(-2361.383 -410.764)"/><path class="d" d="M2491.915,516.468c-.04.026,4.46,1.562,7.47.23,2.831-1.251,4.976-5.909,4.934-5.911-1.288-.06-2.7-1.185-3.791-8.573l-.549.2-9.22,3.318s.668,2.959,1.1,5.775C2492.223,513.868,2492.418,516.134,2491.915,516.468Z" transform="translate(-2400.923 -479.508)"/><path class="p" d="M2490.759,506.324s.668,2.959,1.1,5.775c5.3-.953,7.375-6.23,8.12-9.093Z" transform="translate(-2400.923 -480.105)"/><path class="d" d="M2465.618,461.009s12.616-1.693,11.44-9.534-.339-13.339-8.443-12.589-9.217,3.975-9.462,6.688S2462.306,461.247,2465.618,461.009Z" transform="translate(-2377.155 -431.853)"/><path class="g" d="M2461.043,439.178s8.076,6.959,13.569,7.521,7.573-1.2,7.573-1.2a21.452,21.452,0,0,1-5.186-7.027,3.863,3.863,0,0,0-3.184-2.277C2469.892,435.854,2462.456,435.7,2461.043,439.178Z" transform="translate(-2378.584 -429.754)"/><path class="g" d="M2461.627,441.64a19.879,19.879,0,0,0-3.552,4.55c-.821,1.87-1.068,6.341-.414,8.118,0,0-4.209-8.185-1.826-12.162C2458.362,437.929,2461.627,441.64,2461.627,441.64Z" transform="translate(-2374.12 -432.84)"/><path class="j" d="M2452.622,560.111c.382,25.537.1,20.2,2.9,22.624.673.583,2.565.931,5.056,1.1,7.83.52,21.6-.77,22.119-2.218,1.806-5.007.531-6.563,2.038-14.228.157-.815.352-1.7.58-2.659,1.256-5.265,2.479-7.056-1.978-15.515-4.043-7.662-8.242-13.881-8.62-13.656-10.665,6.331-11.525,1.01-11.525,1.01S2452.435,547.655,2452.622,560.111Z" transform="translate(-2372.252 -504.567)"/><path class="k" d="M2342.537,846.185l8.2,22.064a13.283,13.283,0,0,0,4.355-.4,18.889,18.889,0,0,0,4.212-2.051s-2.276-23.69-6.523-37.289Z" transform="translate(-2289.501 -724.794)"/><path class="j" d="M2431.2,539.631s-10.974,1.861-12.262,6.586-8.872,32.5-8.872,32.5,5.579,1,8.156-1.575,8.968-23.911,8.968-23.911Z" transform="translate(-2340.264 -507.636)"/><path class="f" d="M2484.665,648.022c7.831.52,21.6-.77,22.119-2.218,1.806-5.007.531-6.563,2.038-14.228l-3.776-10.635s.624,11.843-2.868,14.958-14.3,6.013-16,8.616A9.527,9.527,0,0,0,2484.665,648.022Z" transform="translate(-2396.342 -568.759)"/><path class="d" d="M2479.387,706.334s-7.725-1.72-8.972-1.035-4.293,3.182-4.674,4.051,2.775-.66,3.8-.935c.665-.179,2.415.43,3.282.719a10.907,10.907,0,0,0,5.88.59Z" transform="translate(-2382.092 -632.052)"/><path class="j" d="M2522.2,535.549s10.373.639,13.964,5.647c5.055,7.05,15.082,37.1,9.335,41.1-6.472,4.513-29.455,1.18-29.455,1.18s-.765-3.575.3-5.3,18.357-4.523,19.155-5.321-9.977-15.563-9.977-17.958S2522.2,535.549,2522.2,535.549Z" transform="translate(-2419.727 -504.568)"/><path class="d" d="M2474.006,714.449a14.948,14.948,0,0,1-2.149,2.337,1.585,1.585,0,0,1-.874.187l1.091-1.963Z" transform="translate(-2386.057 -639.051)"/><path class="d" d="M2470.416,705.788l-4.706,2.285a.839.839,0,0,0,.78.3,11.213,11.213,0,0,0,2.041-.561Z" transform="translate(-2382.093 -632.541)"/></g><g transform="translate(37.375 53.086)"><path class="q" d="M2327.881,652.43h-37.227l-11.2-27.847h37.169Z" transform="translate(-2279.456 -624.582)"/><path class="r" d="M2322.8,732.375h49.158v1.085H2323.24Z" transform="translate(-2312.041 -705.613)"/><path class="s" d="M2362.193,675.3a1.29,1.29,0,0,1,1.264-1.772,2.539,2.539,0,0,1,2.281,1.772,1.29,1.29,0,0,1-1.264,1.773A2.539,2.539,0,0,1,2362.193,675.3Z" transform="translate(-2341.597 -661.374)"/></g></g></g></g><line class="t" x2="570" transform="translate(104 546.15)"/></g></svg>