<svg xmlns="http://www.w3.org/2000/svg" width="54" height="54" viewBox="0 0 54 54"><defs><style>.a,.b{fill:#f00f16;}.a{opacity:0.1;}</style></defs><g transform="translate(-1115 -1012)"><circle class="a" cx="27" cy="27" r="27" transform="translate(1115 1012)"/><g transform="translate(1127.502 1025.002)"><rect class="b" width="6.77" height="1.846" transform="translate(10.19 19.421)"/><rect class="b" width="12.924" height="2.462" transform="translate(10.19 14.498)"/><path class="b" d="M25.6,4.531H24.465V3.4a3.4,3.4,0,0,0-3.4-3.4H3.4A3.4,3.4,0,0,0,0,3.4V21.067a3.4,3.4,0,0,0,3.4,3.4H4.531V25.6a3.4,3.4,0,0,0,3.4,3.4H20.944L29,20.906V7.929A3.4,3.4,0,0,0,25.6,4.531ZM4.531,7.929V22.2H3.4a1.134,1.134,0,0,1-1.133-1.133V3.4A1.134,1.134,0,0,1,3.4,2.265H21.067A1.134,1.134,0,0,1,22.2,3.4V4.531H7.929A3.4,3.4,0,0,0,4.531,7.929Zm17.1,17.17V22.7a1.134,1.134,0,0,1,1.133-1.133h2.378Zm5.1-5.793H22.76a3.4,3.4,0,0,0-3.4,3.4v4.027H7.929A1.134,1.134,0,0,1,6.8,25.6V7.929A1.134,1.134,0,0,1,7.929,6.8H25.6a1.134,1.134,0,0,1,1.133,1.133Z"/><rect class="b" width="12.924" height="2.462" transform="translate(10.19 10.19)"/></g></g></svg>