<svg xmlns="http://www.w3.org/2000/svg" width="54" height="54" viewBox="0 0 54 54"><defs><style>.a,.b{fill:#fd7f09;}.a{opacity:0.1;}</style></defs><g transform="translate(-1115 -1012)"><circle class="a" cx="27" cy="27" r="27" transform="translate(1115 1012)"/><g transform="translate(1127 1024)"><path class="b" d="M20.332,3.574h-2.7V2.637a.879.879,0,0,0-.879-.879H13.971A2.637,2.637,0,0,0,9,1.758H6.152a.879.879,0,0,0-.879.879v.938H2.637A2.64,2.64,0,0,0,0,6.211V27.363A2.64,2.64,0,0,0,2.637,30h17.7a2.64,2.64,0,0,0,2.637-2.637V6.211A2.64,2.64,0,0,0,20.332,3.574Zm-13.3-.059h2.7a.879.879,0,0,0,.879-.879.879.879,0,0,1,1.758,0,.879.879,0,0,0,.879.879h2.637v.938A.88.88,0,0,1,15,5.332H7.91a.88.88,0,0,1-.879-.879Zm14.18,23.848a.88.88,0,0,1-.879.879H2.637a.88.88,0,0,1-.879-.879V6.211a.88.88,0,0,1,.879-.879H5.425A2.641,2.641,0,0,0,7.91,7.09H15a2.641,2.641,0,0,0,2.486-1.758h2.846a.88.88,0,0,1,.879.879Z"/><g transform="translate(3.516 15)"><path class="b" d="M66.837,256.263a.879.879,0,0,0-1.243-.01l-2.953,2.9L61.5,258.016a.879.879,0,0,0-1.243,1.243l1.758,1.758a.879.879,0,0,0,1.238.005l3.574-3.516A.879.879,0,0,0,66.837,256.263Z" transform="translate(-59.999 -256)"/></g><g transform="translate(3.516 21.152)"><path class="b" d="M66.837,361.263a.879.879,0,0,0-1.243-.01l-2.953,2.9L61.5,363.016a.879.879,0,0,0-1.243,1.243l1.758,1.758a.879.879,0,0,0,1.238.005l3.574-3.516A.879.879,0,0,0,66.837,361.263Z" transform="translate(-59.999 -361)"/></g><g transform="translate(3.516 8.848)"><path class="b" d="M65.016,154.774l-1.136-1.136,1.136-1.136a.879.879,0,0,0-1.243-1.243l-1.136,1.136L61.5,151.258a.879.879,0,0,0-1.243,1.243l1.136,1.136-1.136,1.136a.879.879,0,0,0,1.243,1.243l1.136-1.136,1.136,1.136a.879.879,0,0,0,1.243-1.243Z" transform="translate(-60 -151)"/></g><g transform="translate(12.363 10.605)"><path class="b" d="M217.211,181h-5.332a.879.879,0,0,0,0,1.758h5.332a.879.879,0,0,0,0-1.758Z" transform="translate(-211 -181)"/></g><g transform="translate(12.363 16.758)"><path class="b" d="M217.211,286h-5.332a.879.879,0,0,0,0,1.758h5.332a.879.879,0,0,0,0-1.758Z" transform="translate(-211 -286)"/></g><g transform="translate(12.363 22.91)"><path class="b" d="M217.211,391h-5.332a.879.879,0,0,0,0,1.758h5.332a.879.879,0,0,0,0-1.758Z" transform="translate(-211 -391)"/></g><g transform="translate(24.727 5.332)"><path class="b" d="M424.637,91A2.64,2.64,0,0,0,422,93.637V107.7a.9.9,0,0,0,.044.275l1.758,5.332a.879.879,0,0,0,1.669,0l1.758-5.332a.912.912,0,0,0,.044-.275V93.637A2.64,2.64,0,0,0,424.637,91Zm0,19.224-.726-2.2a1.614,1.614,0,0,1,1.452,0Zm.879-4.016a3.38,3.38,0,0,0-1.758,0V98.031h1.758Zm0-9.935h-1.758V93.637a.879.879,0,0,1,1.758,0Z" transform="translate(-422 -91)"/></g></g></g></svg>