<svg xmlns="http://www.w3.org/2000/svg" width="54" height="54" viewBox="0 0 54 54"><defs><style>.a,.b{fill:#1e6ee7;}.a{opacity:0.1;}</style></defs><g transform="translate(-1115 -1012)"><circle class="a" cx="27" cy="27" r="27" transform="translate(1115 1012)"/><g transform="translate(1124.687 1024.358)"><path class="b" d="M31.44,0H16.227a3.191,3.191,0,0,0-3.188,3.188v9.759l-2.825-1.4c-.1-.048-.192-.092-.29-.135a4.817,4.817,0,1,0-6.647.295A6.42,6.42,0,0,0,0,17.314v3.26A3.193,3.193,0,0,0,2.173,23.6v5.671a1.015,1.015,0,0,0,1.015,1.015h6.52a1.015,1.015,0,0,0,1.015-1.015v-11.4l3.248,1.624a2.783,2.783,0,0,0,3.692-1.164H21.3L17.447,28.92a1.015,1.015,0,0,0,1.907.694l4.1-11.285h.711l4.146,11.288a1.014,1.014,0,0,0,1.9-.7L26.33,18.328h5.11a3.188,3.188,0,0,0,3.188-3.188V3.188A3.188,3.188,0,0,0,31.44,0ZM3.658,8.078a2.789,2.789,0,1,1,2.789,2.789A2.792,2.792,0,0,1,3.658,8.078Zm12.269,9.166-.008.023a.75.75,0,0,1-1.043.411L10.16,15.32a1.015,1.015,0,0,0-1.468.908V28.253H4.2V22.747a1.015,1.015,0,0,0-1.015-1.015,1.16,1.16,0,0,1-1.159-1.159v-3.26A4.42,4.42,0,0,1,6.447,12.9h.9a4.421,4.421,0,0,1,1.966.463L15.623,16.5a.608.608,0,0,1,.3.745Zm16.672-2.1a1.151,1.151,0,0,1-.339.82,1.166,1.166,0,0,1-.82.339H17.882l-.005-.016,2.518-5.035a1.015,1.015,0,1,0-1.815-.908l-2.147,4.294-1.364-.679V3.188a1.16,1.16,0,0,1,1.159-1.159H31.44a1.166,1.166,0,0,1,.82.34,1.149,1.149,0,0,1,.339.819Zm0,0" transform="translate(0 0)"/><path class="b" d="M268.947,64.266H258.081a1.014,1.014,0,1,0,0,2.029h10.867a1.014,1.014,0,0,0,0-2.029Zm0,0" transform="translate(-239.68 -59.919)"/><path class="b" d="M343.846,120.5h-5.433a1.015,1.015,0,0,0,0,2.029h5.433a1.015,1.015,0,0,0,0-2.029Zm0,0" transform="translate(-314.579 -112.35)"/><path class="b" d="M343.846,176.734h-5.433a1.015,1.015,0,0,0,0,2.029h5.433a1.015,1.015,0,0,0,0-2.029Zm0,0" transform="translate(-314.579 -164.781)"/></g></g></svg>