<svg xmlns="http://www.w3.org/2000/svg" width="54" height="54" viewBox="0 0 54 54"><defs><style>.a,.b{fill:#1e6ee7;}.a{opacity:0.1;}</style></defs><g transform="translate(-1115 -1012)"><circle class="a" cx="27" cy="27" r="27" transform="translate(1115 1012)"/><g transform="translate(1127.109 1024.11)"><path class="b" d="M29.406,3.645a.872.872,0,0,0-.8-.1l-2.311.867V.872A.872.872,0,0,0,25.144.044l-10.254,3.4L4.637.044A.873.873,0,0,0,3.49.872v3.54L1.179,3.545A.872.872,0,0,0,0,4.362V21.929a.873.873,0,0,0,.634.839l2.856.812v5.329a.873.873,0,0,0,1.111.839l10.289-2.926L25.18,29.748a.872.872,0,0,0,1.111-.839V23.58l2.856-.812a.873.873,0,0,0,.634-.839V4.362a.872.872,0,0,0-.376-.717ZM5.235,16.156,11.3,18.163a3.964,3.964,0,0,1,2.5,2.487L5.235,17.809Zm19.311-1.838-6.621,2.189a5.709,5.709,0,0,0-2.162,1.31V4.992l8.783-2.912Zm0,1.838v1.653L15.974,20.65a3.962,3.962,0,0,1,2.5-2.487ZM14.018,4.992V17.817a5.715,5.715,0,0,0-2.164-1.311L5.235,14.318V2.081ZM5.235,27.753V24.076L11.7,25.915Zm19.311,0-6.466-1.839,6.466-1.839Zm3.49-6.484L14.891,25.008,1.745,21.27V5.621l1.745.654V18.439a.872.872,0,0,0,.6.828l10.528,3.49a.872.872,0,0,0,.549,0l10.528-3.49a.872.872,0,0,0,.6-.828V6.276l1.745-.654Z"/></g></g></svg>