<svg xmlns="http://www.w3.org/2000/svg" width="54" height="54" viewBox="0 0 54 54"><defs><style>.a,.b{fill:#f00f16;}.a{opacity:0.1;}</style></defs><g transform="translate(-1115 -1012)"><circle class="a" cx="27" cy="27" r="27" transform="translate(1115 1012)"/><g transform="translate(1126.053 1022.053)"><path class="b" d="M90.364,8.721A4.36,4.36,0,1,0,86,4.36,4.365,4.365,0,0,0,90.364,8.721Zm0-6.229A1.869,1.869,0,1,1,88.5,4.36,1.871,1.871,0,0,1,90.364,2.492Zm0,0" transform="translate(-80.646)"/><path class="b" d="M357.755,87.389a4.36,4.36,0,1,0-4.361-4.36A4.365,4.365,0,0,0,357.755,87.389Zm0-6.229a1.869,1.869,0,1,1-1.869,1.869A1.871,1.871,0,0,1,357.755,81.16Zm0,0" transform="translate(-331.381 -73.768)"/><path class="b" d="M26.375,161.556a5.521,5.521,0,0,0-4.667,2.576h0a2.274,2.274,0,0,1-2.271-2.271,4.768,4.768,0,0,0-4.763-4.763H4.764A4.768,4.768,0,0,0,0,161.861c0,.609,0,15.276,0,16.1a1.246,1.246,0,0,0,1.246,1.246h29.4a1.246,1.246,0,0,0,1.246-1.246V167.076a5.526,5.526,0,0,0-5.52-5.52Zm0,2.492a3.031,3.031,0,0,1,3.028,3.028v.623H23.347v-.623A3.031,3.031,0,0,1,26.375,164.048Zm-9.431-2.187a4.769,4.769,0,0,0,3.936,4.689c-.038.406-.02.632-.025,1.149H14.439v-8.109h.234a2.274,2.274,0,0,1,2.271,2.271Zm-5-2.271V167.7H7.49v-8.109Zm-7.184,0H5V167.7H2.492v-5.838a2.274,2.274,0,0,1,2.271-2.271ZM29.4,176.714H2.492V170.19H29.4Zm0,0" transform="translate(0 -147.312)"/></g></g></svg>