<svg xmlns="http://www.w3.org/2000/svg" width="54" height="54" viewBox="0 0 54 54"><defs><style>.a,.b{fill:#fd7f09;}.a{opacity:0.1;}</style></defs><g transform="translate(-1115 -1012)"><circle class="a" cx="27" cy="27" r="27" transform="translate(1115 1012)"/><g transform="translate(1116.127 1023.704)"><g transform="translate(20.29 3.864)"><path class="b" d="M176.9,66.749a.926.926,0,0,0-.747-.63l-2.833-.412-1.267-2.567a.926.926,0,0,0-1.66,0l-1.267,2.567-2.833.412a.926.926,0,0,0-.513,1.579l2.05,2-.484,2.822a.926.926,0,0,0,1.343.976l2.534-1.332,2.534,1.332a.926.926,0,0,0,1.343-.976l-.484-2.822,2.05-2A.925.925,0,0,0,176.9,66.749Zm-3.925,1.961a.925.925,0,0,0-.266.819l.249,1.453-1.3-.686a.926.926,0,0,0-.861,0l-1.3.686.249-1.453a.926.926,0,0,0-.266-.819l-1.056-1.029,1.459-.212a.925.925,0,0,0,.7-.506l.652-1.322.652,1.322a.926.926,0,0,0,.7.506l1.459.212Z" transform="translate(-165.5 -62.624)"/></g><g transform="translate(10.741)"><path class="b" d="M38.228,1.851h-2.3l.118-.788A.926.926,0,0,0,35.129,0H16.618A.926.926,0,0,0,15.7,1.063l.118.788h-2.3a2.775,2.775,0,0,0-2.67,3.539c0,.016.01.032.015.048l1.817,5.248a6.129,6.129,0,0,0,5.247,4.1A8.445,8.445,0,0,0,23.1,19.892v2.541a5.53,5.53,0,0,1-1.359,3.639,2.781,2.781,0,0,0-2.343,2.742v1.851a.926.926,0,0,0,.926.926H31.427a.926.926,0,0,0,.926-.926V28.815a2.781,2.781,0,0,0-2.343-2.742,5.53,5.53,0,0,1-1.359-3.639V19.892a8.445,8.445,0,0,0,5.169-5.108,6.129,6.129,0,0,0,5.247-4.1l1.817-5.248q.008-.024.015-.048A2.775,2.775,0,0,0,38.228,1.851Zm-23.8,8.231-1.807-5.22a.925.925,0,0,1,.9-1.159H16.1l1.371,9.137A4.277,4.277,0,0,1,14.431,10.082ZM29.576,27.889a.927.927,0,0,1,.926.926v.926H21.246v-.926a.927.927,0,0,1,.926-.926Zm-1.843-1.851H24.014a7.446,7.446,0,0,0,.934-3.6V20.31a8.409,8.409,0,0,0,1.851,0v2.123A7.447,7.447,0,0,0,27.733,26.038ZM32.4,12.892a6.6,6.6,0,0,1-13.049,0L17.693,1.851H34.054Zm6.725-8.03-1.807,5.22a4.277,4.277,0,0,1-3.039,2.757L35.648,3.7h2.58A.925.925,0,0,1,39.123,4.861Z" transform="translate(-10.741)"/></g></g></g></svg>