<svg xmlns="http://www.w3.org/2000/svg" width="54" height="54" viewBox="0 0 54 54"><defs><style>.a,.b{fill:#1e6ee7;}.a{opacity:0.1;}</style></defs><g transform="translate(-1115 -1012)"><circle class="a" cx="27" cy="27" r="27" transform="translate(1115 1012)"/><path class="b" d="M25.749,6.836a3.418,3.418,0,1,0-3.418-3.418A3.422,3.422,0,0,0,25.749,6.836Zm0-4.557A1.139,1.139,0,1,1,24.61,3.418,1.141,1.141,0,0,1,25.749,2.279ZM3.418,6.836A3.418,3.418,0,1,0,0,3.418,3.422,3.422,0,0,0,3.418,6.836Zm0-4.557A1.139,1.139,0,1,1,2.279,3.418,1.141,1.141,0,0,1,3.418,2.279Zm22.349,5.64h-.017c-2.358,0-3.253,1.717-3.816,3.4-.192.572-.608,1.821-.881,2.641H19.711V11.337a3.422,3.422,0,0,0-3.418-3.418H12.875a3.422,3.422,0,0,0-3.418,3.418v2.621H8.113c-.273-.82-.689-2.069-.881-2.641-.564-1.681-1.457-3.4-3.816-3.4H3.4A3.421,3.421,0,0,0,0,11.337v6.209a3.423,3.423,0,0,0,2.279,3.222v.025c.029,0,.058,0,.087,0a3.393,3.393,0,0,0,.39.1,1.14,1.14,0,0,1,.663,1.033v7.235H5.7V21.933a3.405,3.405,0,0,0-.141-.968H6.893A1.141,1.141,0,0,1,8.032,22.1v7.064h2.279V22.1a3.422,3.422,0,0,0-3.418-3.418H3.418c-.029,0-.058,0-.087,0a3.393,3.393,0,0,0-.39-.1,1.14,1.14,0,0,1-.663-1.033V11.337A1.139,1.139,0,0,1,3.408,10.2c.515,0,1.045,0,1.664,1.843.3.883,1.13,3.39,1.139,3.416l.259.78H22.7l.259-.78c.008-.025.843-2.533,1.139-3.416.619-1.847,1.149-1.844,1.664-1.843a1.139,1.139,0,0,1,1.129,1.139v6.209a1.14,1.14,0,0,1-.663,1.033,3.393,3.393,0,0,0-.39.1c-.029,0-.058,0-.087,0H22.331A3.422,3.422,0,0,0,18.913,22.1v7.064h2.279V22.1a1.141,1.141,0,0,1,1.139-1.139h1.28a3.405,3.405,0,0,0-.141.968v7.235H25.75V21.933a1.14,1.14,0,0,1,.663-1.033,3.393,3.393,0,0,0,.39-.1c.029,0,.058,0,.087,0v-.025a3.423,3.423,0,0,0,2.279-3.222V11.337a3.421,3.421,0,0,0-3.4-3.418ZM11.735,11.337A1.141,1.141,0,0,1,12.875,10.2h3.418a1.141,1.141,0,0,1,1.139,1.139v2.621h-5.7Zm2.848-4.5a3.418,3.418,0,1,0-3.418-3.418,3.422,3.422,0,0,0,3.418,3.418Zm0-4.557a1.139,1.139,0,1,1-1.139,1.139,1.141,1.141,0,0,1,1.139-1.139Zm0,0" transform="translate(1127.916 1024.916)"/></g></svg>