<svg xmlns="http://www.w3.org/2000/svg" width="54" height="54" viewBox="0 0 54 54"><defs><style>.a,.b{fill:#f00f16;}.a{opacity:0.1;}</style></defs><g transform="translate(-1115 -1012)"><circle class="a" cx="27" cy="27" r="27" transform="translate(1115 1012)"/><g transform="translate(1126.077 943.931)"><g transform="translate(0 85.333)"><g transform="translate(0 0)"><path class="b" d="M31.307,87.777a1.137,1.137,0,0,0-1.107-.05l-7.453,3.727V88.745a3.412,3.412,0,0,0-3.412-3.412H3.412A3.412,3.412,0,0,0,0,88.745v13.648a3.412,3.412,0,0,0,3.412,3.412H19.335a3.412,3.412,0,0,0,3.412-3.412V99.684l7.453,3.733a1.137,1.137,0,0,0,1.646-1.024V88.745A1.137,1.137,0,0,0,31.307,87.777ZM20.472,102.393a1.137,1.137,0,0,1-1.137,1.137H3.412a1.137,1.137,0,0,1-1.137-1.137V88.745a1.137,1.137,0,0,1,1.137-1.137H19.335a1.137,1.137,0,0,1,1.137,1.137v13.648Zm9.1-1.84-6.824-3.412V94l6.824-3.412Z" transform="translate(0 -85.333)"/></g></g><g transform="translate(6.824 91.02)"><g transform="translate(0 0)"><path class="b" d="M106.949,170.667a4.549,4.549,0,1,0,4.549,4.549A4.549,4.549,0,0,0,106.949,170.667Zm0,6.824a2.275,2.275,0,1,1,2.275-2.275A2.275,2.275,0,0,1,106.949,177.491Z" transform="translate(-102.4 -170.667)"/></g></g></g></g></svg>