<svg xmlns="http://www.w3.org/2000/svg" width="54" height="54" viewBox="0 0 54 54"><defs><style>.a,.b{fill:#09ab4f;}.a{opacity:0.1;}</style></defs><g transform="translate(-1115 -1012)"><circle class="a" cx="27" cy="27" r="27" transform="translate(1115 1012)"/><g transform="translate(1097.139 1023.229)"><path class="b" d="M280.241,4.62a4.62,4.62,0,1,0-4.62,4.62A4.626,4.626,0,0,0,280.241,4.62Zm-4.62,2.772a2.772,2.772,0,1,1,2.772-2.772A2.775,2.775,0,0,1,275.62,7.393Z" transform="translate(-225.215)"/><path class="b" d="M32.848,171.377a.924.924,0,0,0,.924.924H55.95a.924.924,0,0,0,.924-.924v-8.446a9.193,9.193,0,0,0,1.848-5.538A7.4,7.4,0,0,0,51.33,150H46.71a2.761,2.761,0,0,0-1.848.708A2.761,2.761,0,0,0,43.013,150h-4.62A7.4,7.4,0,0,0,31,157.393a9.193,9.193,0,0,0,1.848,5.538Zm1.848-6.6a9.193,9.193,0,0,0,5.545,1.853v3.82H34.7Zm9.241-.919a2.776,2.776,0,0,0-1.577-2.5.921.921,0,0,1,.653-.271h3.7a.921.921,0,0,1,.653.271,2.772,2.772,0,0,0,.271,5.114v3.978H42.089v-3.978A2.777,2.777,0,0,0,43.937,163.861Zm5.545,6.592v-3.82a9.193,9.193,0,0,0,5.545-1.853v5.672ZM44.861,153.7a1.848,1.848,0,1,1-1.848,1.848A1.85,1.85,0,0,1,44.861,153.7Zm-6.469-1.848h4.62a.919.919,0,0,1,.6.219,3.7,3.7,0,1,0,2.5,0,.919.919,0,0,1,.6-.219h4.62a5.551,5.551,0,0,1,5.545,5.545,7.4,7.4,0,0,1-7.393,7.393h-.924a.924.924,0,0,1,0-1.848h.924a5.551,5.551,0,0,0,5.545-5.545.924.924,0,0,0-1.848,0,3.7,3.7,0,0,1-3.7,3.7h-.159a2.777,2.777,0,0,0-2.613-1.848h-3.7a2.777,2.777,0,0,0-2.613,1.848h-.159a3.7,3.7,0,0,1-3.7-3.7.924.924,0,0,0-1.848,0,5.551,5.551,0,0,0,5.545,5.545h.924a.924.924,0,1,1,0,1.848h-.924a7.4,7.4,0,0,1-7.393-7.393A5.551,5.551,0,0,1,38.393,151.848Z" transform="translate(0 -140.759)"/><path class="b" d="M100.241,4.62a4.62,4.62,0,1,0-4.62,4.62A4.626,4.626,0,0,0,100.241,4.62ZM95.62,7.393A2.772,2.772,0,1,1,98.393,4.62,2.775,2.775,0,0,1,95.62,7.393Z" transform="translate(-56.304)"/></g></g></svg>