<svg xmlns="http://www.w3.org/2000/svg" width="54" height="54" viewBox="0 0 54 54"><defs><style>.a,.b{fill:#f00f16;}.a{opacity:0.1;}</style></defs><g transform="translate(-1115 -1012)"><circle class="a" cx="27" cy="27" r="27" transform="translate(1115 1012)"/><path class="b" d="M22.328,29.237H4.568A4.573,4.573,0,0,1,0,24.669V4.568A4.573,4.573,0,0,1,4.568,0H22.328A4.573,4.573,0,0,1,26.9,4.568v14.39a1.142,1.142,0,1,1-2.284,0V4.568a2.287,2.287,0,0,0-2.284-2.284H4.568A2.287,2.287,0,0,0,2.284,4.568v20.1a2.287,2.287,0,0,0,2.284,2.284H22.328a2.287,2.287,0,0,0,2.284-2.284,1.142,1.142,0,1,1,2.284,0A4.573,4.573,0,0,1,22.328,29.237Zm0-23.7a1.142,1.142,0,1,0-1.142,1.142A1.142,1.142,0,0,0,22.328,5.539Zm0,4.568a1.142,1.142,0,1,0-1.142,1.142A1.142,1.142,0,0,0,22.328,10.107Zm0,4.568a1.142,1.142,0,1,0-1.142,1.142A1.142,1.142,0,0,0,22.328,14.676Zm0,4.568a1.142,1.142,0,1,0-1.142,1.142A1.142,1.142,0,0,0,22.328,19.244Zm0,4.568a1.142,1.142,0,1,0-1.142,1.142A1.142,1.142,0,0,0,22.328,23.812ZM6.852,5.539A1.142,1.142,0,1,0,5.71,6.681,1.142,1.142,0,0,0,6.852,5.539Zm0,4.568A1.142,1.142,0,1,0,5.71,11.249,1.142,1.142,0,0,0,6.852,10.107Zm0,4.568A1.142,1.142,0,1,0,5.71,15.818,1.142,1.142,0,0,0,6.852,14.676Zm0,4.568A1.142,1.142,0,1,0,5.71,20.386,1.142,1.142,0,0,0,6.852,19.244Zm0,4.568A1.142,1.142,0,1,0,5.71,24.954,1.142,1.142,0,0,0,6.852,23.812Zm5.468-4.468,4.744-2.762a2.208,2.208,0,0,0,0-3.813l-4.744-2.762a2.2,2.2,0,0,0-3.3,1.907v5.525a2.19,2.19,0,0,0,3.3,1.907Zm-1.149-1.974h0ZM15.8,14.676l-4.493,2.616V12.06Zm0,0" transform="translate(1128.552 1024.881)"/></g></svg>