<svg xmlns="http://www.w3.org/2000/svg" width="54" height="54" viewBox="0 0 54 54"><defs><style>.a,.b{fill:#1e6ee7;}.a{opacity:0.1;}</style></defs><g transform="translate(-1115 -1012)"><circle class="a" cx="27" cy="27" r="27" transform="translate(1115 1012)"/><g transform="translate(1126.962 1024)"><path class="b" d="M25.166,1.336A2.647,2.647,0,0,0,22.857,0H15.095a2.64,2.64,0,0,0-2.637,2.637V6.152a2.64,2.64,0,0,0,2.637,2.637h5.273a.88.88,0,0,1,.879.879v6.9a16.816,16.816,0,0,0-7.774-.256A7.933,7.933,0,1,0,8,30,46,46,0,0,0,29.55,24.575a.879.879,0,0,0,.486-.786V19.976a38.073,38.073,0,0,0-4.87-18.64Zm3.112,21.911A44.05,44.05,0,0,1,8,28.242a6.178,6.178,0,0,1-4.858-2.369,6.25,6.25,0,0,1-1.177-5.339,6.214,6.214,0,0,1,9.413-3.649,16.464,16.464,0,0,0-2.012.844.879.879,0,0,0,.786,1.572,14.98,14.98,0,0,1,13.335,0,.879.879,0,0,0,.786-1.572q-.626-.313-1.272-.569V9.668a2.64,2.64,0,0,0-2.637-2.637h-.879V4.395a.879.879,0,0,0-.879-.879H16.853a.879.879,0,1,0,0,1.758h.879V7.031H15.095a.88.88,0,0,1-.879-.879V2.637a.88.88,0,0,1,.879-.879h7.762a.887.887,0,0,1,.778.441,36.311,36.311,0,0,1,4.644,17.778v3.271Z" transform="translate(0)"/></g></g></svg>