<svg xmlns="http://www.w3.org/2000/svg" xmlns:xlink="http://www.w3.org/1999/xlink" width="83" height="83" viewBox="0 0 83 83"><defs><style>.a{fill:#fff;}.b{fill:#fd7f09;}.c{filter:url(#a);}</style><filter id="a" x="0" y="0" width="83" height="83" filterUnits="userSpaceOnUse"><feOffset dy="3" input="SourceAlpha"/><feGaussianBlur stdDeviation="3" result="b"/><feFlood flood-opacity="0.09"/><feComposite operator="in" in2="b"/><feComposite in="SourceGraphic"/></filter></defs><g transform="translate(-266 -3091)"><g class="c" transform="matrix(1, 0, 0, 1, 266, 3091)"><circle class="a" cx="32.5" cy="32.5" r="32.5" transform="translate(9 6)"/></g><g transform="translate(289.644 3110.644)"><path class="b" d="M24.881,4.374h-3.3V3.227a1.076,1.076,0,0,0-1.076-1.076H17.1a3.227,3.227,0,0,0-6.085,0H7.529A1.076,1.076,0,0,0,6.453,3.227V4.374H3.227A3.23,3.23,0,0,0,0,7.6V33.485a3.23,3.23,0,0,0,3.227,3.227H24.881a3.23,3.23,0,0,0,3.227-3.227V7.6A3.23,3.23,0,0,0,24.881,4.374ZM8.6,4.3h3.3a1.076,1.076,0,0,0,1.076-1.076,1.076,1.076,0,0,1,2.151,0A1.076,1.076,0,0,0,16.2,4.3h3.227V5.449a1.077,1.077,0,0,1-1.076,1.076H9.68A1.077,1.077,0,0,1,8.6,5.449ZM25.956,33.485a1.077,1.077,0,0,1-1.076,1.076H3.227a1.077,1.077,0,0,1-1.076-1.076V7.6A1.077,1.077,0,0,1,3.227,6.525H6.638A3.232,3.232,0,0,0,9.68,8.676h8.676A3.232,3.232,0,0,0,21.4,6.525h3.483A1.077,1.077,0,0,1,25.956,7.6Z"/><g transform="translate(4.302 18.356)"><path class="b" d="M68.367,256.322a1.075,1.075,0,0,0-1.521-.013l-3.613,3.554-1.4-1.4a1.076,1.076,0,0,0-1.521,1.521l2.151,2.151a1.076,1.076,0,0,0,1.515.006l4.374-4.3A1.076,1.076,0,0,0,68.367,256.322Z" transform="translate(-59.999 -256)"/></g><g transform="translate(4.302 25.885)"><path class="b" d="M68.367,361.322a1.075,1.075,0,0,0-1.521-.013l-3.613,3.554-1.4-1.4a1.076,1.076,0,0,0-1.521,1.521l2.151,2.151a1.075,1.075,0,0,0,1.515.006l4.374-4.3A1.075,1.075,0,0,0,68.367,361.322Z" transform="translate(-59.999 -361)"/></g><g transform="translate(4.302 10.827)"><path class="b" d="M66.138,155.618l-1.391-1.391,1.391-1.391a1.076,1.076,0,0,0-1.521-1.521l-1.391,1.391-1.391-1.391a1.076,1.076,0,0,0-1.521,1.521l1.391,1.391-1.391,1.391a1.076,1.076,0,1,0,1.521,1.521l1.391-1.391,1.391,1.391a1.076,1.076,0,1,0,1.521-1.521Z" transform="translate(-60 -151)"/></g><g transform="translate(15.129 12.978)"><path class="b" d="M218.6,181h-6.525a1.076,1.076,0,0,0,0,2.151H218.6a1.076,1.076,0,1,0,0-2.151Z" transform="translate(-211 -181)"/></g><g transform="translate(15.129 20.507)"><path class="b" d="M218.6,286h-6.525a1.076,1.076,0,1,0,0,2.151H218.6a1.076,1.076,0,1,0,0-2.151Z" transform="translate(-211 -286)"/></g><g transform="translate(15.129 28.036)"><path class="b" d="M218.6,391h-6.525a1.076,1.076,0,1,0,0,2.151H218.6a1.076,1.076,0,1,0,0-2.151Z" transform="translate(-211 -391)"/></g><g transform="translate(30.259 6.525)"><path class="b" d="M425.227,91A3.23,3.23,0,0,0,422,94.227v17.209a1.107,1.107,0,0,0,.054.337l2.151,6.525a1.076,1.076,0,0,0,2.043,0l2.151-6.525a1.116,1.116,0,0,0,.054-.337V94.227A3.23,3.23,0,0,0,425.227,91Zm0,23.525-.888-2.694a1.976,1.976,0,0,1,1.776,0Zm1.076-4.914a4.136,4.136,0,0,0-2.151,0V99.6H426.3Zm0-12.158h-2.151V94.227a1.076,1.076,0,0,1,2.151,0Z" transform="translate(-422 -91)"/></g></g></g></svg>