<svg xmlns="http://www.w3.org/2000/svg" xmlns:xlink="http://www.w3.org/1999/xlink" width="83" height="83" viewBox="0 0 83 83"><defs><style>.a{fill:#fff;}.b{fill:#fd7f09;}.c{filter:url(#a);}</style><filter id="a" x="0" y="0" width="83" height="83" filterUnits="userSpaceOnUse"><feOffset dy="3" input="SourceAlpha"/><feGaussianBlur stdDeviation="3" result="b"/><feFlood flood-opacity="0.09"/><feComposite operator="in" in2="b"/><feComposite in="SourceGraphic"/></filter></defs><g transform="translate(-551 -3282)"><g class="c" transform="matrix(1, 0, 0, 1, 551, 3282)"><circle class="a" cx="32.5" cy="32.5" r="32.5" transform="translate(9 6)"/></g><path class="b" d="M37.442,18.189v-2.2H9.911a5.52,5.52,0,0,0-4.4,8.81H0V27H2.2v6.607H0v2.2H5.506a5.522,5.522,0,0,0,4.405,8.81h9.911v6.463l4.4-2.937,4.4,2.937V44.618h8.81v-2.2h-2.2V35.808h2.2v-2.2H31.933a5.492,5.492,0,0,0,0-6.607h5.509V24.8h-2.2V18.189ZM26.43,46.966l-2.2-1.468-2.2,1.468V40.213h4.4Zm6.607-4.55h-4.4v-4.4h-8.81v4.4H9.911a3.3,3.3,0,0,1,0-6.607H33.037ZM30.835,30.3a3.307,3.307,0,0,1-3.3,3.3H4.4V27H27.531A3.307,3.307,0,0,1,30.835,30.3Zm2.2-5.506H9.911a3.3,3.3,0,0,1,0-6.607H33.037Z" transform="translate(571.779 3288.967)"/></g></svg>