<svg xmlns="http://www.w3.org/2000/svg" xmlns:xlink="http://www.w3.org/1999/xlink" width="83" height="83" viewBox="0 0 83 83"><defs><style>.a{fill:#fff;}.b{fill:#fd7f09;}.c{filter:url(#a);}</style><filter id="a" x="0" y="0" width="83" height="83" filterUnits="userSpaceOnUse"><feOffset dy="3" input="SourceAlpha"/><feGaussianBlur stdDeviation="3" result="b"/><feFlood flood-opacity="0.09"/><feComposite operator="in" in2="b"/><feComposite in="SourceGraphic"/></filter></defs><g transform="translate(-551 -3091)"><g class="c" transform="matrix(1, 0, 0, 1, 551, 3091)"><circle class="a" cx="32.5" cy="32.5" r="32.5" transform="translate(9 6)"/></g><g transform="translate(574.22 3113.513)"><path class="b" d="M33.2,0H17.133a3.37,3.37,0,0,0-3.366,3.366v10.3l-2.982-1.483c-.1-.05-.2-.1-.306-.143a5.086,5.086,0,1,0-7.018.311A6.779,6.779,0,0,0,0,18.281v3.442a3.371,3.371,0,0,0,2.295,3.191V30.9a1.071,1.071,0,0,0,1.071,1.071h6.884A1.071,1.071,0,0,0,11.32,30.9V18.866l3.429,1.714a2.939,2.939,0,0,0,3.9-1.229h3.84L18.421,30.535a1.071,1.071,0,0,0,2.013.732l4.333-11.915h.751L29.895,31.27a1.071,1.071,0,0,0,2.011-.739L27.8,19.352h5.4a3.366,3.366,0,0,0,3.366-3.366V3.366A3.366,3.366,0,0,0,33.2,0ZM3.863,8.528a2.944,2.944,0,1,1,2.944,2.944A2.948,2.948,0,0,1,3.863,8.528Zm12.953,9.678-.008.024a.792.792,0,0,1-1.1.434l-4.98-2.489a1.072,1.072,0,0,0-1.55.958v12.7H4.436V24.017a1.071,1.071,0,0,0-1.071-1.071,1.225,1.225,0,0,1-1.223-1.223V18.281a4.666,4.666,0,0,1,4.665-4.665h.946a4.668,4.668,0,0,1,2.076.488L16.5,17.42a.642.642,0,0,1,.321.787Zm17.6-2.22a1.215,1.215,0,0,1-.358.865,1.231,1.231,0,0,1-.866.358H18.88l-.005-.017,2.658-5.316a1.071,1.071,0,1,0-1.916-.958l-2.267,4.534-1.44-.717V3.366a1.225,1.225,0,0,1,1.223-1.223H33.2a1.231,1.231,0,0,1,.866.359,1.214,1.214,0,0,1,.358.865Zm0,0"/><path class="b" d="M269.61,64.266H258.137a1.071,1.071,0,1,0,0,2.142H269.61a1.071,1.071,0,1,0,0-2.142Zm0,0" transform="translate(-238.71 -59.677)"/><path class="b" d="M344.206,120.5h-5.737a1.071,1.071,0,1,0,0,2.142h5.737a1.071,1.071,0,0,0,0-2.142Zm0,0" transform="translate(-313.305 -111.895)"/><path class="b" d="M344.206,176.734h-5.737a1.071,1.071,0,1,0,0,2.142h5.737a1.071,1.071,0,1,0,0-2.142Zm0,0" transform="translate(-313.305 -164.114)"/></g></g></svg>