<svg xmlns="http://www.w3.org/2000/svg" width="76" height="76" viewBox="0 0 76 76"><defs><style>.a,.b{fill:#09ab4f;}.a{opacity:0.1;}</style></defs><g transform="translate(-553 -1946)"><circle class="a" cx="38" cy="38" r="38" transform="translate(553 1946)"/><g transform="translate(562.119 1956.121)"><g transform="translate(0 0)"><path class="b" d="M139.073,47.277a5.249,5.249,0,0,0,5.346-5.65,6.49,6.49,0,0,0-.044-.751c2.22-1.418,3.174-3.316,3.174-6.258s-.955-4.839-3.174-6.258a6.492,6.492,0,0,0,.044-.751,5.249,5.249,0,0,0-5.346-5.65,5.231,5.231,0,0,0-4.625-2.708A3.819,3.819,0,0,0,131.6,20.3q-.115.114-.221.239-.106-.125-.221-.239a3.821,3.821,0,0,0-2.848-1.048,5.232,5.232,0,0,0-4.625,2.708,5.249,5.249,0,0,0-5.346,5.65,6.511,6.511,0,0,0,.044.751c-2.22,1.418-3.174,3.316-3.174,6.258s.955,4.839,3.174,6.258a6.487,6.487,0,0,0-.044.751,5.249,5.249,0,0,0,5.346,5.65,5.231,5.231,0,0,0,4.625,2.708h.077a3.793,3.793,0,0,0,2.771-1.048q.115-.114.221-.239.106.125.221.239a3.792,3.792,0,0,0,2.771,1.048h.077A5.232,5.232,0,0,0,139.073,47.277Zm-8.842-2.593a3.786,3.786,0,0,1-.685,2.618,1.6,1.6,0,0,1-1.2.387,2.953,2.953,0,0,1-2.683-1.6,1.839,1.839,0,0,1,.7-.727,1.819,1.819,0,0,1,1.392-.184,1.149,1.149,0,0,0,.6-2.218,4.14,4.14,0,0,0-4.7,2.011c-2-.142-3.015-1.266-3.015-3.347a4.187,4.187,0,0,1,.075-.789,1.618,1.618,0,0,0-.779-1.708c-1.791-1.031-2.426-2.212-2.426-4.512s.635-3.48,2.426-4.511a1.619,1.619,0,0,0,.78-1.709,4.175,4.175,0,0,1-.075-.788c0-2.231,1.165-3.363,3.464-3.363h.014c.034,0,.067,0,.1,0a1.309,1.309,0,0,1,.75,1.541,1.148,1.148,0,1,0,2.22.59,3.614,3.614,0,0,0-1.211-3.728,3.039,3.039,0,0,1,2.37-1.1,1.6,1.6,0,0,1,1.2.387,3.786,3.786,0,0,1,.685,2.618Zm7.563-1.232a1.149,1.149,0,1,0-2.22-.59,3.614,3.614,0,0,0,1.211,3.728,3.039,3.039,0,0,1-2.37,1.1,1.593,1.593,0,0,1-1.2-.387,3.786,3.786,0,0,1-.685-2.618V24.554a3.786,3.786,0,0,1,.685-2.618,1.6,1.6,0,0,1,1.2-.387,2.953,2.953,0,0,1,2.683,1.6,1.839,1.839,0,0,1-.7.727,1.819,1.819,0,0,1-1.392.184,1.148,1.148,0,0,0-.6,2.218,4.149,4.149,0,0,0,1.077.143,4.15,4.15,0,0,0,3.623-2.154c2,.142,3.015,1.266,3.015,3.347a4.187,4.187,0,0,1-.075.789,1.618,1.618,0,0,0,.779,1.708c1.791,1.031,2.426,2.212,2.426,4.512s-.635,3.48-2.426,4.511a1.619,1.619,0,0,0-.78,1.709,4.176,4.176,0,0,1,.075.788c0,2.231-1.165,3.363-3.464,3.363h-.009c-.035,0-.07,0-.105,0A1.308,1.308,0,0,1,137.794,43.452Z" transform="translate(-101.977 -19.252)"/><path class="b" d="M173.323,132.583a3.356,3.356,0,0,0-2.465,5.635q.066.071.136.14a1.149,1.149,0,0,0,1.623-1.626c-.027-.027-.053-.054-.079-.081a1.028,1.028,0,0,1-.191-1.13,1.048,1.048,0,0,1,.976-.642,1.149,1.149,0,1,0,0-2.3Z" transform="translate(-150.435 -119.567)"/><path class="b" d="M304.577,136.734a1.149,1.149,0,0,0,1.623,1.626q.069-.069.136-.141a3.356,3.356,0,0,0-2.465-5.635,1.149,1.149,0,1,0,0,2.3,1.048,1.048,0,0,1,.976.642,1.028,1.028,0,0,1-.191,1.13Q304.617,136.694,304.577,136.734Z" transform="translate(-267.954 -119.567)"/><path class="b" d="M19.142,101.944l-8.007-7.89V85.56a3.484,3.484,0,0,0-3.48-3.48l-.12,0a3.459,3.459,0,0,0-.582.07V81.3A3.509,3.509,0,0,0,3.638,77.76a3.707,3.707,0,0,0-2.69.987,2.862,2.862,0,0,0-.92,2.077C.027,83.533.011,96.153,0,100.1c0,.093,0,.186,0,.278a10.527,10.527,0,0,0,3.423,7.5q.027.025.056.048l8.956,7.224v9.119a1.149,1.149,0,0,0,1.149,1.149h8.073a1.149,1.149,0,0,0,1.149-1.149V110.7A12.369,12.369,0,0,0,19.142,101.944ZM7.606,84.378h.048A1.185,1.185,0,0,1,8.838,85.56v7.185a3.7,3.7,0,0,0-1.886.183v-8.32A1.17,1.17,0,0,1,7.606,84.378Zm12.9,38.744H14.734V114.6a1.149,1.149,0,0,0-.427-.894l-9.353-7.545A8.218,8.218,0,0,1,2.3,100.339q0-.114,0-.229c.011-3.952.028-16.576.028-19.286a.579.579,0,0,1,.209-.415,1.412,1.412,0,0,1,1-.354A1.231,1.231,0,0,1,4.655,81.3V95.42a3.729,3.729,0,0,0,.926,3.605l8.09,8.463a1.149,1.149,0,1,0,1.66-1.587L7.236,97.432l-.012-.012a1.423,1.423,0,0,1-.013-1.983l.15-.136a1.415,1.415,0,0,1,1.89.122l.012.012,8.266,8.145a10.058,10.058,0,0,1,2.98,7.121v12.422Z" transform="translate(0 -71.037)"/><path class="b" d="M336.2,80.824a2.863,2.863,0,0,0-.92-2.077,3.709,3.709,0,0,0-2.69-.987,3.509,3.509,0,0,0-3.314,3.542v.849a3.445,3.445,0,0,0-.581-.07l-.122,0a3.484,3.484,0,0,0-3.48,3.48v8.494l-8.007,7.89a12.37,12.37,0,0,0-3.665,8.757v13.57a1.149,1.149,0,0,0,1.149,1.149h8.073a1.149,1.149,0,0,0,1.149-1.149v-9.119l8.956-7.224q.029-.023.056-.048a10.527,10.527,0,0,0,3.423-7.5q0-.138,0-.278c-.011-3.95-.027-16.57-.027-19.279Zm-7.635,3.553h.056a1.168,1.168,0,0,1,.654.23v8.319a3.7,3.7,0,0,0-1.886-.182V85.56A1.183,1.183,0,0,1,328.567,84.377Zm5.363,15.962a8.219,8.219,0,0,1-2.654,5.826l-9.353,7.545a1.149,1.149,0,0,0-.427.894v8.519h-5.776V110.7a10.058,10.058,0,0,1,2.98-7.121l8.266-8.145.012-.012a1.415,1.415,0,0,1,1.89-.123l.151.137A1.423,1.423,0,0,1,329,97.42l-.01.01-4.08,4.243a1.149,1.149,0,0,0,1.656,1.592l4.076-4.239a3.728,3.728,0,0,0,.927-3.606V81.3a1.231,1.231,0,0,1,1.125-1.248,1.412,1.412,0,0,1,1,.354.579.579,0,0,1,.209.415c0,2.71.017,15.334.028,19.286C333.932,100.187,333.932,100.263,333.93,100.338Z" transform="translate(-277.425 -71.037)"/><path class="b" d="M381.522,316.415a1.148,1.148,0,1,0-.407,1.383A1.157,1.157,0,0,0,381.522,316.415Z" transform="translate(-335.75 -281.657)"/></g></g></g></svg>