<svg xmlns="http://www.w3.org/2000/svg" width="76" height="76" viewBox="0 0 76 76"><defs><style>.a,.b{fill:#fd7f09;}.a{opacity:0.1;}</style></defs><g transform="translate(-553 -1946)"><circle class="a" cx="38" cy="38" r="38" transform="translate(553 1946)"/><g transform="translate(565.376 1958.369)"><g transform="translate(0 0.008)"><path class="b" d="M51,15.8a1.5,1.5,0,0,0-2.08-.427l-9.108,6.005a1.5,1.5,0,0,0,1.653,2.507l2.38-1.569L39.432,42.246H26.867c.009-.026.019-.051.027-.076l3-9.009a4.515,4.515,0,0,0-1.775-5.172l-5.708-3.8,1.451-2.95,1.577,1.577a4.474,4.474,0,0,0,3.185,1.32h6.005a4.5,4.5,0,1,0,0-9.008h-4.14l-3.01-3.01a6.013,6.013,0,0,0,5.714-6,6.006,6.006,0,1,0-12.011,0,5.966,5.966,0,0,0,.808,3H13.678a4.527,4.527,0,0,0-2.014.475l-6.005,3a4.5,4.5,0,1,0,4.029,8.058l5.054-2.527h.619c-3.694,7.45-2.357,4.847-4.876,9.925l-7.4,2.417a4.5,4.5,0,0,0,2.847,8.547l9.176-3a4.477,4.477,0,0,0,2.6-2.258l.7-1.409,1.851,1.234-1.914,5.744a4.468,4.468,0,0,0,.027,2.927H7.608a4.5,4.5,0,1,0,0,9.008H43.64a4.5,4.5,0,1,0,0-9.008H42.507l4.937-22.307,3.127-2.062A1.5,1.5,0,0,0,51,15.8ZM27.191,3.01a3.1,3.1,0,0,1,3,3.1,3,3,0,1,1-6.005,0A3.1,3.1,0,0,1,27.191,3.01Zm-12.8,12.111a1.5,1.5,0,0,0-.672.159L8.344,17.966A1.5,1.5,0,0,1,7,15.279l6.005-3a1.509,1.509,0,0,1,.672-.158h4.66l-1.489,3H14.387Zm.635,17.287a1.489,1.489,0,0,1-.86.75l-9.172,3-.01,0a1.5,1.5,0,0,1-.957-2.847l7.993-2.61a1.5,1.5,0,0,0,.879-.76l.521-1.05a4.5,4.5,0,0,0,.7.581l1.777,1.184Zm.762-5.428a1.5,1.5,0,0,1-.627-1.593c4.337-8.745,6.121-12.438,6.121-12.438a1.5,1.5,0,0,1,2.4-.391l5.565,5.565h5.384a1.5,1.5,0,0,1,0,3H28.627a1.511,1.511,0,0,1-1.061-.44l-4.543-4.543-4.464,9.078,7.9,5.265a1.506,1.506,0,0,1,.592,1.724l-3,9.008a1.5,1.5,0,1,1-2.849-.951l2.639-7.92ZM43.64,45.248a1.5,1.5,0,0,1,0,3H7.608a1.5,1.5,0,0,1,0-3Z" transform="translate(0 -0.008)"/></g></g></g></svg>