<svg xmlns="http://www.w3.org/2000/svg" width="76" height="76" viewBox="0 0 76 76"><defs><style>.a,.b{fill:#09ab4f;}.a{opacity:0.1;}</style></defs><g transform="translate(-175 -1692)"><circle class="a" cx="38" cy="38" r="38" transform="translate(175 1692)"/><g transform="translate(186.97 1704.496)"><g transform="translate(0.03 0.001)"><path class="b" d="M50.96,49.643,49.429,45.79a1,1,0,1,0-1.851.735l.989,2.489H34.719L30.376,35.037a1,1,0,0,0-.362-.507,8.58,8.58,0,0,1-3.488-6.89V21.957a2.909,2.909,0,0,1,1.332-2.45,1,1,0,0,0-1.084-1.672q-.127.082-.248.172V11.32a2.43,2.43,0,0,1,.84-1.833l2.556,7.152a1,1,0,0,0,1.876-.67L28.167,5.807a.954.954,0,0,1,1.79-.659L33.838,15.4A1,1,0,0,0,35.7,14.7L31.413,3.366a1.014,1.014,0,0,1,.655-1.33,1.017,1.017,0,0,1,1.242.612l4.352,11.5a1,1,0,0,0,1.863-.705L36.1,4.4a1.016,1.016,0,0,1,.569-1.3,1.011,1.011,0,0,1,1.322.58l2.782,7.349a3.116,3.116,0,0,0-.376,2.5l.89,3.208v2.141a8.463,8.463,0,0,0-6.629,4.667,1,1,0,0,0,1.783.888,6.488,6.488,0,0,1,5.841-3.619,1,1,0,0,0,1-1V16.607a1,1,0,0,0-.036-.266L42.32,13a1.121,1.121,0,0,1,2.048-.864l1,1.714a5.7,5.7,0,0,1,.752,2.4l.346,4.344a4.765,4.765,0,0,1-.53,2.593L43.48,27.875a8.832,8.832,0,0,0-.385,7.367l1.172,2.951a1,1,0,0,0,1.851-.735l-1.172-2.951a6.842,6.842,0,0,1,.3-5.707L47.7,24.116a6.753,6.753,0,0,0,.751-3.676L48.105,16.1a7.7,7.7,0,0,0-1.017-3.247l-1-1.714A3.118,3.118,0,0,0,42.42,9.748l-2.563-6.77A3,3,0,0,0,35.1,1.762a3,3,0,0,0-5.707.794,2.948,2.948,0,0,0-3.1,3.921l.379,1.061a4.423,4.423,0,0,0-1.14.992,4.423,4.423,0,0,0-1.14-.992l.379-1.061a2.948,2.948,0,0,0-3.1-3.921,3.005,3.005,0,0,0-5.707-.794A3,3,0,0,0,11.2,2.978L8.641,9.747a3.118,3.118,0,0,0-3.669,1.387l-1,1.714A7.7,7.7,0,0,0,2.956,16.1L2.61,20.44a6.754,6.754,0,0,0,.751,3.676L5.816,28.8a6.842,6.842,0,0,1,.3,5.707L.1,49.643a1,1,0,0,0,.926,1.364H17.075a1,1,0,0,0,.951-.7l4.466-14.374A10.56,10.56,0,0,0,25.53,32.1a10.56,10.56,0,0,0,3.038,3.833l4.466,14.374a1,1,0,0,0,.951.7H50.034a1,1,0,0,0,.926-1.364ZM21.046,34.529a1,1,0,0,0-.362.507L16.341,49.015H2.494L7.965,35.242a8.832,8.832,0,0,0-.385-7.367L5.126,23.191A4.764,4.764,0,0,1,4.6,20.6l.346-4.343a5.7,5.7,0,0,1,.752-2.4l1-1.714A1.121,1.121,0,0,1,8.741,13l-.926,3.339a1,1,0,0,0-.036.266v3.215a1,1,0,0,0,1,1,6.489,6.489,0,0,1,5.841,3.619A1,1,0,0,0,16.4,23.55a8.463,8.463,0,0,0-6.629-4.667V16.742l.89-3.208a3.115,3.115,0,0,0-.376-2.5l2.782-7.349a1.011,1.011,0,0,1,1.322-.58,1.016,1.016,0,0,1,.569,1.3l-3.422,9.039a1,1,0,0,0,1.863.705l4.352-11.5a1.017,1.017,0,0,1,1.242-.612,1.014,1.014,0,0,1,.655,1.33L15.359,14.7a1,1,0,1,0,1.863.705L21.1,5.148a.954.954,0,0,1,1.79.659L19.262,15.968a1,1,0,1,0,1.876.67l2.556-7.152a2.43,2.43,0,0,1,.84,1.833v6.687q-.121-.089-.248-.172A1,1,0,1,0,23.2,19.507a2.909,2.909,0,0,1,1.332,2.45v5.682a8.58,8.58,0,0,1-3.488,6.89Z" transform="translate(-0.03 -0.001)"/><circle class="b" cx="0.996" cy="0.996" r="0.996" transform="translate(45.823 40.994)"/></g></g></g></svg>