<svg xmlns="http://www.w3.org/2000/svg" width="76" height="76" viewBox="0 0 76 76"><defs><style>.a,.b{fill:#f00f16;}.a{opacity:0.1;}</style></defs><g transform="translate(-555 -1692)"><circle class="a" cx="38" cy="38" r="38" transform="translate(555 1692)"/><g transform="translate(560.523 1697.754)"><path class="b" d="M63.631,26.9a1.25,1.25,0,0,0-1.13-.341L51.735,28.728a1.249,1.249,0,0,0-.637,2.108l1.457,1.457-5.717,5.717-4.425-4.425a1.249,1.249,0,0,0-1.767,0l-5.43,5.43L37.252,31.7a5.865,5.865,0,0,0-3.588-7.059l1.628-4.652c.449.039.9.06,1.341.06a15.532,15.532,0,0,0,9.9-3.58l.3-.247A3.48,3.48,0,0,0,47.4,11.4a3.465,3.465,0,0,0-4.959-.549l-.338.281a8.6,8.6,0,0,1-1.62,1.062,5.18,5.18,0,0,1-5.93-1.043,5.709,5.709,0,1,0-6.3-2.1A6.508,6.508,0,0,0,24.9,10.948a1.248,1.248,0,0,0-.147.151,16.947,16.947,0,0,1-8.49,5.611,3.455,3.455,0,0,0-2.057,1.628l-2.56-2.56a2.877,2.877,0,0,0-4.063,0L4.235,19.128h0L.885,22.479a2.873,2.873,0,0,0,0,4.063l9.232,9.232a2.874,2.874,0,0,0,4.063,0l3.469-3.469L16,36.619a1.249,1.249,0,1,0,2.335.89l4.1-10.743h9.173a3.359,3.359,0,0,1,3.236,4.259l-2.839,10.2a1.068,1.068,0,0,1-1.026.78,1.065,1.065,0,0,1-1.052-1.232l1.51-9.5a1.249,1.249,0,0,0-1.234-1.445H27.244a1.249,1.249,0,0,0-1.115.685c-.073.144-7.321,14.475-9.763,19.318a1.283,1.283,0,0,1-1.321.687l-.059-.008a1.222,1.222,0,0,1-.978-1.646l.77-2.018a1.249,1.249,0,1,0-2.334-.89l-.77,2.018a3.72,3.72,0,0,0,2.976,5.012l.059.008A3.789,3.789,0,0,0,18.6,50.959c2.133-4.23,7.935-15.7,9.416-18.63h.73l-1.28,8.05A3.562,3.562,0,0,0,29.9,44.333L15.981,58.249a1.249,1.249,0,0,0,0,1.767L19.564,63.6a1.249,1.249,0,0,0,1.767,0l6.888-6.888a1.249,1.249,0,0,0-1.767-1.767l-6,6-1.816-1.816,22.9-22.9,4.425,4.425a1.249,1.249,0,0,0,1.767,0L55.2,33.176a1.249,1.249,0,0,0,0-1.767l-.692-.692,6.639-1.336-1.336,6.639-1.028-1.028a1.25,1.25,0,0,0-1.767,0L46.838,45.175,42.412,40.75a1.25,1.25,0,0,0-1.767,0l-7.127,7.127a1.249,1.249,0,1,0,1.767,1.767L41.529,43.4l4.425,4.425a1.25,1.25,0,0,0,1.767,0L57.9,37.643,59.7,39.436a1.249,1.249,0,0,0,2.108-.637l2.167-10.766A1.25,1.25,0,0,0,63.631,26.9ZM32.874,2.5a3.2,3.2,0,1,1-3.2,3.2A3.208,3.208,0,0,1,32.874,2.5ZM20.513,24.641l-1.52-1.52q1.083-.353,2.126-.806ZM16.3,20.307a.968.968,0,0,1,.662-1.2,19.486,19.486,0,0,0,5.695-2.7l-.705,2.712a21.544,21.544,0,0,1-4.454,1.844c-.029.008-.059.015-.089.021a.959.959,0,0,1-.655-.112l-.366-.366A.951.951,0,0,1,16.3,20.307ZM9.353,17.544a.375.375,0,0,1,.53,0L14.436,22.1a3.434,3.434,0,0,0,.747.747l3.932,3.932a.375.375,0,0,1,0,.53l-2.467,2.467L13.9,27.03l.523-.523a1.249,1.249,0,0,0,0-1.767l-2.812-2.812a1.25,1.25,0,0,0-1.767,0l-.523.523-2.44-2.44Zm1.71,8.793a.469.469,0,0,1-.663,0h0l-.382-.382a.469.469,0,0,1,0-.663l.714-.714,1.045,1.045Zm1.351,7.671a.375.375,0,0,1-.53,0L2.651,24.776a.375.375,0,0,1,0-.53l2.467-2.467,2.556,2.556a2.971,2.971,0,0,0,.576,3.387l.382.382h0a2.971,2.971,0,0,0,3.387.576l2.861,2.861Zm17.844-9.74H23.191L25.758,14.4a4,4,0,0,1,3.875-3,3.96,3.96,0,0,1,2.933,1.278,7.7,7.7,0,0,0,9.049,1.741A11.092,11.092,0,0,0,43.7,13.055l.338-.281a.967.967,0,0,1,1.385.154,1,1,0,0,1-.189,1.367l-.3.247a12.958,12.958,0,0,1-10.3,2.847,1.248,1.248,0,0,0-1.371.822l-2.12,6.056Z" transform="translate(-0.043)"/><path class="b" d="M238.245,408.8a1.25,1.25,0,1,0,.883.366A1.258,1.258,0,0,0,238.245,408.8Z" transform="translate(-207.396 -357.732)"/><path class="b" d="M114.135,326.638a1.248,1.248,0,1,0-.884-.366A1.258,1.258,0,0,0,114.135,326.638Z" transform="translate(-98.79 -283.648)"/></g></g></svg>