<svg xmlns="http://www.w3.org/2000/svg" width="75.572" height="57.616" viewBox="0 0 75.572 57.616"><defs><style>.a{fill:#fff;}</style></defs><g transform="translate(0 -60.826)"><g transform="translate(0 60.826)"><path class="a" d="M72.376,86.353,72.552,86a16.1,16.1,0,0,0,.022-13.961l-.079-.137A22.175,22.175,0,0,0,50.1,61.049a21.384,21.384,0,0,0-12.3,6.271,21.385,21.385,0,0,0-12.3-6.271A22.175,22.175,0,0,0,3.088,71.9l-.079.137A16.028,16.028,0,0,0,3.03,86l.176.351L0,93.369l3.708,4.059,2.418,7.253a5.533,5.533,0,0,0,5.256,3.788q1.023,0,2.036-.076v10.048H62.164V108.394q1.013.075,2.036.075a5.533,5.533,0,0,0,5.256-3.788l2.418-7.255,3.7-4.058Zm-36.8,27.657H17.85v-6.316c6.377-1.556,9.739-4.717,12.31-6.245L27.7,97.761c-2.326,1.237-7.25,6.276-16.32,6.276a1.107,1.107,0,0,1-1.051-.758L7.615,95.134,5.25,92.544l2.868-6.279L6.994,84.018A11.568,11.568,0,0,1,7,73.989a17.762,17.762,0,0,1,17.867-8.551A16.976,16.976,0,0,1,35,70.789a23.466,23.466,0,0,0-3.721,15.326,24.488,24.488,0,0,0,4.3,11.422V114.01Zm1.523-37.784c.214-.5.447-.992.7-1.468q.375.713.7,1.468a19.03,19.03,0,0,1-.7,16.408A19.03,19.03,0,0,1,37.094,76.226ZM67.966,95.135l-2.715,8.145a1.107,1.107,0,0,1-1.051.758c-9.075,0-14.005-5.045-16.32-6.276l-2.459,3.688c2.578,1.533,5.936,4.689,12.31,6.245v6.316H40V98.5h.008v-.961a24.484,24.484,0,0,0,4.3-11.422,23.466,23.466,0,0,0-3.721-15.326,16.976,16.976,0,0,1,10.127-5.35A17.761,17.761,0,0,1,68.58,73.989a11.509,11.509,0,0,1,.008,10.03l-1.123,2.246,2.861,6.281Z" transform="translate(0 -60.826)"/></g></g></svg>