<svg xmlns="http://www.w3.org/2000/svg" width="68" height="68" viewBox="0 0 68 68"><defs><style>.a,.b{fill:#1e6ee7;}.a{opacity:0.1;}</style></defs><g transform="translate(-1127 -3490)"><circle class="a" cx="34" cy="34" r="34" transform="translate(1127 3490)"/><g transform="translate(1143.149 3508.39)"><path class="b" d="M211.772,0H196.087A3.286,3.286,0,0,0,192.8,3.286v7.726l2.561,1.273,1.279-2.56a3.138,3.138,0,1,1,5.613,2.807l-2.281,4.562a4.765,4.765,0,0,1-.163,1.8h1.506l-3.971,10.92a1.046,1.046,0,1,0,1.966.715L203.542,18.9h.733l4.274,11.638a1.046,1.046,0,0,0,1.964-.721L206.5,18.9h5.269a3.286,3.286,0,0,0,3.286-3.286V3.286A3.286,3.286,0,0,0,211.772,0Zm-2.241,14.415h-4.693a1.046,1.046,0,1,1,0-2.092h4.693a1.046,1.046,0,1,1,0,2.092Zm0-3.921h-4.693a1.046,1.046,0,1,1,0-2.092h4.693a1.046,1.046,0,1,1,0,2.092Zm0-3.921h-11.2a1.046,1.046,0,1,1,0-2.092h11.2a1.046,1.046,0,1,1,0,2.092Zm0,0" transform="translate(-179.358)"/><path class="b" d="M18.4,46.355a2.7,2.7,0,0,0,.028-1.66l2.6-5.191a1.046,1.046,0,1,0-1.871-.936L16.942,43l-4.953-2.464a8.97,8.97,0,0,0-4.417-1.421H6.648A4.556,4.556,0,1,0,3.33,37.677a4.544,4.544,0,0,0,3.317,1.433,6.681,6.681,0,0,0-4.7,1.946A6.6,6.6,0,0,0,0,45.758v3.361a3.292,3.292,0,0,0,2.241,3.116v5.846a1.046,1.046,0,0,0,1.046,1.046h6.722a1.046,1.046,0,0,0,1.046-1.046V46.33L14.4,48a2.865,2.865,0,0,0,4-1.636l0-.012Zm0,0" transform="translate(0 -27.908)"/></g></g></svg>