<svg xmlns="http://www.w3.org/2000/svg" width="68" height="68" viewBox="0 0 68 68"><defs><style>.a,.b{fill:#09ab4f;}.a{opacity:0.1;}</style></defs><g transform="translate(-1127 -3643)"><circle class="a" cx="34" cy="34" r="34" transform="translate(1127 3643)"/><g transform="translate(1147.602 3661.267)"><path class="b" d="M126.437,158.457a6,6,0,1,0,6,6A6,6,0,0,0,126.437,158.457Zm3.56,4.867-4.3,4.3a.923.923,0,0,1-1.306,0l-1.641-1.641a.923.923,0,1,1,1.306-1.306l.989.989,3.643-3.643A.923.923,0,0,1,130,163.324Zm0,0" transform="translate(-113.038 -148.719)"/><path class="b" d="M26.766,8.537V8.513c-.014-.3-.023-.622-.028-.978A3.335,3.335,0,0,0,23.6,4.268,12.942,12.942,0,0,1,14.788.555l-.02-.019a2.014,2.014,0,0,0-2.737,0l-.02.019A12.943,12.943,0,0,1,3.2,4.268,3.335,3.335,0,0,0,.061,7.535c-.005.353-.015.673-.028.978V8.57c-.07,3.689-.158,8.281,1.378,12.449a15.847,15.847,0,0,0,3.8,5.922,19.887,19.887,0,0,0,7.44,4.4,2.3,2.3,0,0,0,.3.083,2.252,2.252,0,0,0,.885,0,2.311,2.311,0,0,0,.306-.084,19.9,19.9,0,0,0,7.432-4.4,15.869,15.869,0,0,0,3.8-5.923C26.923,16.834,26.836,12.234,26.766,8.537ZM13.4,23.576a7.842,7.842,0,1,1,7.842-7.842A7.851,7.851,0,0,1,13.4,23.576Zm0,0" transform="translate(0)"/></g></g></svg>