<svg xmlns="http://www.w3.org/2000/svg" width="54" height="54" viewBox="0 0 54 54"><defs><style>.a,.b{fill:#f00f16;}.a{opacity:0.1;}</style></defs><g transform="translate(-640 -989)"><circle class="a" cx="27" cy="27" r="27" transform="translate(640 989)"/><g transform="translate(648.738 998.235)"><path class="b" d="M36.357,15.364a.714.714,0,0,0-.645-.195l-6.148,1.237a.713.713,0,0,0-.364,1.2l.832.832-3.265,3.265L24.24,19.179a.713.713,0,0,0-1.009,0l-3.1,3.1,1.163-4.18a3.35,3.35,0,0,0-2.049-4.031l.93-2.656c.257.023.513.034.766.034A8.87,8.87,0,0,0,26.595,9.4l.17-.141a1.987,1.987,0,0,0,.326-2.75A1.979,1.979,0,0,0,24.259,6.2l-.193.16a4.913,4.913,0,0,1-.925.606,2.958,2.958,0,0,1-3.387-.6,3.26,3.26,0,1,0-3.6-1.2,3.717,3.717,0,0,0-1.918,1.082.713.713,0,0,0-.084.086,9.678,9.678,0,0,1-4.849,3.2,1.973,1.973,0,0,0-1.175.93L6.671,9.01a1.643,1.643,0,0,0-2.32,0L2.437,10.924h0L.524,12.837a1.641,1.641,0,0,0,0,2.321L5.8,20.43a1.641,1.641,0,0,0,2.321,0L10.1,18.449l-.939,2.464a.713.713,0,1,0,1.333.508l2.34-6.135H18.07a1.918,1.918,0,0,1,1.848,2.432L18.3,23.543a.61.61,0,0,1-.586.445.608.608,0,0,1-.6-.7l.863-5.423a.713.713,0,0,0-.7-.825H15.577a.713.713,0,0,0-.637.391c-.042.082-4.181,8.267-5.576,11.032a.733.733,0,0,1-.754.392l-.034,0a.7.7,0,0,1-.558-.94l.44-1.153a.713.713,0,1,0-1.333-.508L6.685,27.4a2.125,2.125,0,0,0,1.7,2.862l.034,0a2.164,2.164,0,0,0,2.22-1.164c1.218-2.416,4.532-8.968,5.377-10.639h.417l-.731,4.6a2.034,2.034,0,0,0,1.391,2.258L9.145,33.265a.713.713,0,0,0,0,1.009l2.046,2.046a.713.713,0,0,0,1.009,0l3.934-3.934a.713.713,0,1,0-1.009-1.009L11.7,34.807,10.658,33.77,23.735,20.693l2.527,2.527a.713.713,0,0,0,1.009,0l4.274-4.274a.714.714,0,0,0,0-1.009l-.4-.4,3.792-.763-.763,3.792-.587-.587a.714.714,0,0,0-1.009,0L26.767,25.8,24.24,23.272a.714.714,0,0,0-1.009,0l-4.07,4.07a.713.713,0,0,0,1.009,1.009l3.566-3.566,2.527,2.527a.714.714,0,0,0,1.009,0L33.087,21.5l1.024,1.024a.713.713,0,0,0,1.2-.364l1.237-6.148A.714.714,0,0,0,36.357,15.364ZM18.792,1.427a1.83,1.83,0,1,1-1.83,1.83A1.832,1.832,0,0,1,18.792,1.427ZM11.733,14.072l-.868-.868q.619-.2,1.214-.461ZM9.325,11.6a.553.553,0,0,1,.378-.684,11.128,11.128,0,0,0,3.252-1.541l-.4,1.549a12.3,12.3,0,0,1-2.544,1.053l-.051.012a.548.548,0,0,1-.374-.064l-.209-.209A.543.543,0,0,1,9.325,11.6ZM5.36,10.019a.214.214,0,0,1,.3,0l2.6,2.6a1.961,1.961,0,0,0,.426.426l2.246,2.246a.214.214,0,0,1,0,.3L9.526,17,7.959,15.436l.3-.3a.714.714,0,0,0,0-1.009L6.651,12.523a.714.714,0,0,0-1.009,0l-.3.3L3.95,11.428Zm.977,5.022a.268.268,0,0,1-.379,0h0l-.218-.218a.268.268,0,0,1,0-.379l.407-.407.6.6Zm.771,4.381a.214.214,0,0,1-.3,0L1.533,14.149a.214.214,0,0,1,0-.3l1.409-1.409L4.4,13.9a1.7,1.7,0,0,0,.329,1.935l.218.218h0a1.7,1.7,0,0,0,1.935.329l1.634,1.634ZM17.3,13.859H13.263l1.466-5.634a2.287,2.287,0,0,1,2.213-1.711,2.261,2.261,0,0,1,1.675.73,4.4,4.4,0,0,0,5.168.994,6.334,6.334,0,0,0,1.194-.783l.193-.16a.552.552,0,0,1,.791.088.573.573,0,0,1-.108.781l-.17.141A7.4,7.4,0,0,1,19.8,9.931a.713.713,0,0,0-.783.469l-1.211,3.459Z" transform="translate(-0.043)"/><path class="b" d="M237.709,408.8a.714.714,0,1,0,.5.209A.719.719,0,0,0,237.709,408.8Z" transform="translate(-220.092 -379.636)"/><path class="b" d="M113.6,325.567a.713.713,0,1,0-.505-.209A.719.719,0,0,0,113.6,325.567Z" transform="translate(-104.836 -301.016)"/></g></g></svg>