<svg xmlns="http://www.w3.org/2000/svg" width="54" height="54" viewBox="0 0 54 54"><defs><style>.a,.b{fill:#fd7f09;}.a{opacity:0.1;}</style></defs><g transform="translate(-308 -850)"><circle class="a" cx="27" cy="27" r="27" transform="translate(308 850)"/><g transform="translate(317.765 861.561)"><g transform="translate(0 0)"><path class="b" d="M129.2,35.68a3.077,3.077,0,0,0,3.134-3.312,3.8,3.8,0,0,0-.026-.44,3.893,3.893,0,0,0,1.861-3.668,3.894,3.894,0,0,0-1.861-3.668,3.8,3.8,0,0,0,.026-.44,3.077,3.077,0,0,0-3.134-3.312,3.067,3.067,0,0,0-2.711-1.587,2.239,2.239,0,0,0-1.669.614q-.067.067-.129.14-.062-.073-.129-.14a2.24,2.24,0,0,0-1.669-.614,3.067,3.067,0,0,0-2.711,1.587,3.077,3.077,0,0,0-3.134,3.312,3.815,3.815,0,0,0,.026.44,3.893,3.893,0,0,0-1.861,3.668,3.894,3.894,0,0,0,1.861,3.668,3.8,3.8,0,0,0-.026.44,3.077,3.077,0,0,0,3.134,3.312,3.067,3.067,0,0,0,2.711,1.587h.045a2.223,2.223,0,0,0,1.624-.615q.067-.067.129-.14.062.073.129.14a2.223,2.223,0,0,0,1.624.615h.045A3.067,3.067,0,0,0,129.2,35.68Zm-5.183-1.52a2.219,2.219,0,0,1-.4,1.535.938.938,0,0,1-.705.227,1.731,1.731,0,0,1-1.573-.935,1.078,1.078,0,0,1,.413-.426,1.066,1.066,0,0,1,.816-.108.673.673,0,0,0,.349-1.3,2.427,2.427,0,0,0-2.755,1.179,1.73,1.73,0,0,1-1.768-1.962,2.454,2.454,0,0,1,.044-.463.948.948,0,0,0-.457-1,2.59,2.59,0,0,1-1.422-2.645,2.59,2.59,0,0,1,1.422-2.644.949.949,0,0,0,.457-1,2.447,2.447,0,0,1-.044-.462,1.774,1.774,0,0,1,2.031-1.971h.008l.059,0a.767.767,0,0,1,.439.9.673.673,0,1,0,1.3.346,2.118,2.118,0,0,0-.71-2.185,1.782,1.782,0,0,1,1.389-.644.938.938,0,0,1,.705.227,2.22,2.22,0,0,1,.4,1.535Zm4.434-.722a.673.673,0,1,0-1.3-.346,2.118,2.118,0,0,0,.71,2.185,1.782,1.782,0,0,1-1.389.644.934.934,0,0,1-.705-.227,2.219,2.219,0,0,1-.4-1.535V22.36a2.219,2.219,0,0,1,.4-1.535.937.937,0,0,1,.705-.227,1.731,1.731,0,0,1,1.573.935,1.078,1.078,0,0,1-.413.426,1.066,1.066,0,0,1-.816.108.673.673,0,0,0-.349,1.3,2.432,2.432,0,0,0,.631.084,2.433,2.433,0,0,0,2.124-1.262,1.73,1.73,0,0,1,1.768,1.962,2.454,2.454,0,0,1-.044.463.948.948,0,0,0,.457,1,2.59,2.59,0,0,1,1.422,2.645A2.59,2.59,0,0,1,131.4,30.9a.949.949,0,0,0-.457,1,2.447,2.447,0,0,1,.044.462,1.774,1.774,0,0,1-2.031,1.971h-.005l-.062,0A.767.767,0,0,1,128.448,33.438Z" transform="translate(-107.452 -19.252)"/><path class="b" d="M171.929,132.583a1.967,1.967,0,0,0-1.445,3.3q.039.042.08.082a.673.673,0,0,0,.951-.953l-.046-.048a.6.6,0,0,1-.112-.662.614.614,0,0,1,.572-.376.673.673,0,1,0,0-1.347Z" transform="translate(-158.512 -124.953)"/><path class="b" d="M303.809,135.017a.673.673,0,0,0,.951.953q.041-.041.08-.082a1.967,1.967,0,0,0-1.445-3.3.673.673,0,1,0,0,1.347.614.614,0,0,1,.572.376.6.6,0,0,1-.112.662Z" transform="translate(-282.341 -124.954)"/><path class="b" d="M11.221,91.935,6.527,87.31V82.331a2.043,2.043,0,0,0-2.04-2.04H4.416a2.028,2.028,0,0,0-.341.041v-.5a2.057,2.057,0,0,0-1.942-2.077,2.173,2.173,0,0,0-1.577.578,1.678,1.678,0,0,0-.539,1.218c0,1.588-.01,8.986-.016,11.3,0,.055,0,.109,0,.163a6.171,6.171,0,0,0,2.006,4.395l.033.028,5.25,4.235v5.345a.673.673,0,0,0,.673.673H12.7a.673.673,0,0,0,.673-.673V97.068A7.251,7.251,0,0,0,11.221,91.935Zm-6.762-10.3h.028a.694.694,0,0,1,.694.694v4.212a2.167,2.167,0,0,0-1.106.107V81.773A.686.686,0,0,1,4.459,81.638Zm7.564,22.712H8.637V99.355a.673.673,0,0,0-.251-.524L2.9,94.409a4.817,4.817,0,0,1-1.556-3.415q0-.067,0-.134c.006-2.316.016-9.717.016-11.305a.34.34,0,0,1,.122-.243.828.828,0,0,1,.584-.208.722.722,0,0,1,.659.731V88.11a2.186,2.186,0,0,0,.543,2.113l4.742,4.961a.673.673,0,0,0,.973-.931L4.242,89.29l-.007-.007a.834.834,0,0,1-.008-1.163l.088-.08a.83.83,0,0,1,1.108.072l.007.007,4.846,4.775a5.9,5.9,0,0,1,1.747,4.174v7.281Z" transform="translate(0 -73.817)"/><path class="b" d="M326.775,79.555a1.678,1.678,0,0,0-.539-1.218,2.174,2.174,0,0,0-1.577-.578,2.057,2.057,0,0,0-1.943,2.077v.5a2.021,2.021,0,0,0-.34-.041H322.3a2.042,2.042,0,0,0-2.04,2.04V87.31l-4.694,4.625a7.251,7.251,0,0,0-2.148,5.133v7.955a.673.673,0,0,0,.673.673h4.732a.673.673,0,0,0,.673-.673V99.677l5.25-4.235.033-.028a6.171,6.171,0,0,0,2.006-4.4q0-.081,0-.163c-.006-2.316-.016-9.714-.016-11.3ZM322.3,81.637h.033a.684.684,0,0,1,.383.135v4.877a2.167,2.167,0,0,0-1.106-.107V82.331A.694.694,0,0,1,322.3,81.637Zm3.144,9.357a4.818,4.818,0,0,1-1.556,3.415l-5.483,4.423a.673.673,0,0,0-.251.524v4.994h-3.386V97.068a5.9,5.9,0,0,1,1.747-4.174l4.845-4.775.007-.007a.83.83,0,0,1,1.108-.072l.089.08a.834.834,0,0,1-.008,1.162l-.006.006-2.392,2.487a.673.673,0,0,0,.971.933l2.389-2.485a2.186,2.186,0,0,0,.543-2.114V79.835a.722.722,0,0,1,.659-.731.827.827,0,0,1,.584.208.339.339,0,0,1,.122.243c0,1.588.01,8.989.016,11.305C325.445,90.9,325.445,90.95,325.444,90.994Z" transform="translate(-292.321 -73.818)"/><path class="b" d="M380.609,316.121a.673.673,0,1,0-.239.811A.678.678,0,0,0,380.609,316.121Z" transform="translate(-353.777 -295.747)"/></g></g></g></svg>