<svg xmlns="http://www.w3.org/2000/svg" width="54" height="54" viewBox="0 0 54 54"><defs><style>.a,.b{fill:#1e6ee7;}.a{opacity:0.1;}</style></defs><g transform="translate(-640 -850)"><circle class="a" cx="27" cy="27" r="27" transform="translate(640 850)"/><g transform="translate(652.858 861.386)"><g transform="translate(0.03 0.001)"><path class="b" d="M29.212,28.445l-.877-2.208a.571.571,0,1,0-1.061.421l.567,1.426H19.906l-2.488-8.009a.571.571,0,0,0-.207-.291,4.916,4.916,0,0,1-2-3.948V12.582a1.667,1.667,0,0,1,.763-1.4.571.571,0,0,0-.621-.958q-.073.047-.142.1V6.487a1.392,1.392,0,0,1,.482-1.05l1.464,4.1a.571.571,0,0,0,1.075-.384L16.152,3.328a.546.546,0,0,1,1.026-.378L19.4,8.827a.571.571,0,0,0,1.068-.4L18.012,1.929a.581.581,0,0,1,.375-.762.583.583,0,0,1,.711.35L21.592,8.1a.571.571,0,0,0,1.068-.4L20.7,2.521a.582.582,0,0,1,.326-.743.579.579,0,0,1,.757.333l1.594,4.211a1.785,1.785,0,0,0-.215,1.433l.51,1.838V10.82a4.849,4.849,0,0,0-3.8,2.674A.571.571,0,1,0,20.9,14a3.718,3.718,0,0,1,3.347-2.074.571.571,0,0,0,.571-.571V9.516a.571.571,0,0,0-.021-.153L24.261,7.45a.642.642,0,0,1,1.174-.495l.572.982a3.266,3.266,0,0,1,.431,1.377l.2,2.489a2.73,2.73,0,0,1-.3,1.486l-1.406,2.684a5.06,5.06,0,0,0-.221,4.221l.672,1.691a.571.571,0,1,0,1.061-.421l-.672-1.691a3.92,3.92,0,0,1,.171-3.27l1.406-2.684a3.87,3.87,0,0,0,.43-2.106l-.2-2.489a4.414,4.414,0,0,0-.583-1.861l-.572-.982a1.786,1.786,0,0,0-2.1-.795L22.85,1.707a1.717,1.717,0,0,0-2.727-.7,1.722,1.722,0,0,0-3.27.455,1.689,1.689,0,0,0-1.776,2.247l.217.608a2.534,2.534,0,0,0-.653.568,2.534,2.534,0,0,0-.653-.568l.217-.608A1.689,1.689,0,0,0,12.43,1.465,1.722,1.722,0,0,0,9.16,1.01a1.719,1.719,0,0,0-2.727.7L4.964,5.586a1.786,1.786,0,0,0-2.1.795l-.572.982a4.413,4.413,0,0,0-.583,1.861l-.2,2.489a3.87,3.87,0,0,0,.43,2.106L3.345,16.5a3.92,3.92,0,0,1,.171,3.27L.071,28.445a.571.571,0,0,0,.53.781H9.8a.571.571,0,0,0,.545-.4L12.9,20.589a6.051,6.051,0,0,0,1.741-2.2,6.051,6.051,0,0,0,1.741,2.2l2.559,8.236a.571.571,0,0,0,.545.4h9.2a.571.571,0,0,0,.53-.782Zm-17.14-8.66a.571.571,0,0,0-.207.291L9.376,28.085H1.442l3.135-7.892a5.06,5.06,0,0,0-.221-4.221L2.95,13.289a2.73,2.73,0,0,1-.3-1.486l.2-2.489a3.266,3.266,0,0,1,.431-1.377l.572-.982a.642.642,0,0,1,1.174.495L4.491,9.364a.571.571,0,0,0-.021.153v1.842a.571.571,0,0,0,.571.571A3.718,3.718,0,0,1,8.388,14a.571.571,0,0,0,1.022-.509,4.849,4.849,0,0,0-3.8-2.674V9.594l.51-1.838a1.785,1.785,0,0,0-.215-1.433L7.5,2.111a.579.579,0,0,1,.757-.333.582.582,0,0,1,.326.743L6.623,7.7a.571.571,0,1,0,1.068.4l2.494-6.587a.583.583,0,0,1,.711-.35.581.581,0,0,1,.375.762L8.813,8.424a.571.571,0,1,0,1.068.4L12.1,2.95a.546.546,0,0,1,1.026.378L11.05,9.15a.571.571,0,1,0,1.075.384l1.464-4.1a1.392,1.392,0,0,1,.482,1.05v3.832q-.069-.051-.142-.1a.571.571,0,1,0-.621.958,1.667,1.667,0,0,1,.763,1.4v3.256a4.916,4.916,0,0,1-2,3.948Z" transform="translate(-0.03 -0.001)"/><circle class="b" cx="0.571" cy="0.571" r="0.571" transform="translate(26.256 23.489)"/></g></g></g></svg>