<svg xmlns="http://www.w3.org/2000/svg" width="54" height="54" viewBox="0 0 54 54"><defs><style>.a,.b{fill:#09ab4f;}.a{opacity:0.1;}</style></defs><g transform="translate(-308 -989)"><circle class="a" cx="27" cy="27" r="27" transform="translate(308 989)"/><g transform="translate(319.541 1000.533)"><g transform="translate(0 0.008)"><path class="b" d="M30.769,9.533a.906.906,0,0,0-1.255-.258l-5.5,3.623a.906.906,0,0,0,1,1.512l1.436-.947L23.79,25.491H16.21l.016-.046,1.812-5.435a2.724,2.724,0,0,0-1.071-3.12l-3.443-2.3.875-1.78.951.951a2.7,2.7,0,0,0,1.921.8h3.623a2.717,2.717,0,1,0,0-5.435H18.4L16.58,7.31a3.628,3.628,0,0,0,3.447-3.619,3.624,3.624,0,1,0-7.246,0A3.6,3.6,0,0,0,13.269,5.5H8.253a2.731,2.731,0,0,0-1.215.287L3.414,7.6a2.718,2.718,0,1,0,2.431,4.861l3.049-1.525h.373c-2.229,4.494-1.422,2.924-2.942,5.988L1.859,18.384a2.718,2.718,0,0,0,1.718,5.156l5.536-1.812a2.7,2.7,0,0,0,1.571-1.363l.425-.85,1.117.744L11.07,23.725a2.7,2.7,0,0,0,.016,1.766H4.59a2.717,2.717,0,1,0,0,5.435H26.329a2.717,2.717,0,1,0,0-5.435h-.683l2.979-13.459,1.887-1.244A.906.906,0,0,0,30.769,9.533ZM16.4,1.819a1.867,1.867,0,0,1,1.812,1.872,1.812,1.812,0,1,1-3.623,0A1.867,1.867,0,0,1,16.4,1.819ZM8.68,9.126a.906.906,0,0,0-.405.1l-3.24,1.621a.906.906,0,0,1-.81-1.621L7.847,7.41a.911.911,0,0,1,.405-.1h2.811l-.9,1.812Zm.383,10.429a.9.9,0,0,1-.519.453L3.01,21.82l-.006,0A.906.906,0,0,1,2.427,20.1L7.249,18.53a.906.906,0,0,0,.53-.459l.314-.633a2.714,2.714,0,0,0,.424.35l1.072.715Zm.46-3.275a.907.907,0,0,1-.378-.961c2.617-5.276,3.693-7.5,3.693-7.5a.906.906,0,0,1,1.451-.236l3.358,3.358h3.248a.906.906,0,0,1,0,1.812H17.271a.912.912,0,0,1-.64-.265L13.89,9.743,11.2,15.22,15.962,18.4a.908.908,0,0,1,.357,1.04l-1.812,5.435a.906.906,0,1,1-1.719-.574l1.592-4.778ZM26.329,27.3a.906.906,0,0,1,0,1.812H4.59a.906.906,0,0,1,0-1.812Z" transform="translate(0 -0.008)"/></g></g></g></svg>