<svg xmlns="http://www.w3.org/2000/svg" width="68" height="68" viewBox="0 0 68 68"><defs><style>.a,.b{fill:#fd7f09;}.a{opacity:0.1;}</style></defs><g transform="translate(-557 -3643)"><circle class="a" cx="34" cy="34" r="34" transform="translate(557 3643)"/><g transform="translate(538.142 3658.01)"><g transform="translate(40.501 8.775)"><g transform="translate(0)"><circle class="b" cx="2.581" cy="2.581" r="2.581"/></g></g><g transform="translate(56.29 0)"><g transform="translate(0)"><circle class="b" cx="2.581" cy="2.581" r="2.581"/></g></g><g transform="translate(36.581 5.481)"><g transform="translate(0)"><path class="b" d="M68.605,96.567H67.426c.027-.009.054-.018.081-.029a1.435,1.435,0,0,0,.78-1.873l-2.494-6.053L65.605,84.1a1.427,1.427,0,0,0-.116-.505l-1.863-8.353a1.744,1.744,0,0,0-2.081-1.322L58.51,74.6a1.744,1.744,0,0,0-1.322,2.081L57.46,77.9l1.18-1.862L57.408,79.59l-4.062,1.747a1.148,1.148,0,0,0,.907,2.109L58.78,81.5a1.148,1.148,0,0,0,.631-.679l1.4-4.032L60.36,81.15a1.557,1.557,0,0,1-1.183,1.272l-.646.278.379,1.7-1.243,3.39a1.443,1.443,0,0,0-.075.3l-.943,6.928a1.435,1.435,0,0,0,.951,1.549H56.4a.53.53,0,0,0-.53.53v4.377H50.13a1.433,1.433,0,0,0,.639-1.395l-.943-6.928a1.435,1.435,0,0,0-1.175-1.22l-2.687-.468V89.026l-3.383-2.757,3.838,1.867a1.147,1.147,0,0,0,.926.034l4.58-1.82a1.148,1.148,0,1,0-.848-2.133L46.968,85.85,43.586,84.2l2.365.533a1.743,1.743,0,0,0-1.73-1.528H41.112a1.743,1.743,0,0,0-1.743,1.743V93.9h0l-.186,4.448L36.69,104.4a1.435,1.435,0,0,0,2.653,1.093l2.59-6.287a1.433,1.433,0,0,0,.107-.487l.2-4.761c0-.02,0-.04,0-.06h1.183a30.007,30.007,0,0,0,3.7.68l.8,5.889a1.43,1.43,0,0,0,.639,1.008H43.127a.53.53,0,0,0-.53.53v3.848a.53.53,0,0,0,.53.53H68.605a.53.53,0,0,0,.53-.53V97.1A.53.53,0,0,0,68.605,96.567Zm-10.068,0a1.434,1.434,0,0,0,.954-1.162l.922-6.774,1.4-3.817.94-.21.183,4.38a1.433,1.433,0,0,0,.107.487l2.59,6.287a1.43,1.43,0,0,0,.859.809Z" transform="translate(-36.581 -73.881)"/></g></g></g></g></svg>